<?xml version="1.0" encoding="UTF-8" standalone="no"?>
<svg
   viewBox="0 0 793.7007874015749 1122.5196850393702"
   width="793.7007874015749"
   height="1122.5196850393702"
   version="1.1"
   id="svg23"
   sodipodi:docname="backing_ply.svg"
   inkscape:version="1.3.2 (091e20e, 2023-11-25, custom)"
   xml:space="preserve"
   xmlns:inkscape="http://www.inkscape.org/namespaces/inkscape"
   xmlns:sodipodi="http://sodipodi.sourceforge.net/DTD/sodipodi-0.dtd"
   xmlns="http://www.w3.org/2000/svg"
   xmlns:svg="http://www.w3.org/2000/svg"><sodipodi:namedview
     id="namedview23"
     pagecolor="#ffffff"
     bordercolor="#000000"
     borderopacity="0.25"
     inkscape:showpageshadow="2"
     inkscape:pageopacity="0.0"
     inkscape:pagecheckerboard="0"
     inkscape:deskcolor="#d1d1d1"
     inkscape:zoom="0.7439452"
     inkscape:cx="33.604626"
     inkscape:cy="1171.4573"
     inkscape:window-width="2560"
     inkscape:window-height="1377"
     inkscape:window-x="-8"
     inkscape:window-y="-8"
     inkscape:window-maximized="1"
     inkscape:current-layer="g23"
     showguides="false"><sodipodi:guide
       position="-377.33857,-377.33863"
       orientation="0,-1"
       id="guide24"
       inkscape:locked="false" /><sodipodi:guide
       position="283.46456,161.26383"
       orientation="0,1"
       id="guide28"
       inkscape:locked="false"
       inkscape:label=""
       inkscape:color="rgb(0,134,229)" /><sodipodi:guide
       position="-194.28619,-227.30855"
       orientation="1,0"
       id="guide32"
       inkscape:locked="false" /><sodipodi:guide
       position="194.28619,-227.30855"
       orientation="1,0"
       id="guide33"
       inkscape:locked="false" /><sodipodi:guide
       position="-192.80302,-267.74951"
       orientation="0,1"
       id="guide35"
       inkscape:label=""
       inkscape:locked="false"
       inkscape:color="rgb(0,134,229)" /><sodipodi:guide
       position="-377.33857,-377.33863"
       orientation="-1,0"
       id="guide36"
       inkscape:locked="false"
       inkscape:label=""
       inkscape:color="rgb(0,134,229)" /><sodipodi:guide
       position="320.64567,-377.33862"
       orientation="1,0"
       id="guide39"
       inkscape:locked="false" /><sodipodi:guide
       position="-377.33858,-316.1772"
       orientation="0,1"
       id="guide40"
       inkscape:label=""
       inkscape:locked="false"
       inkscape:color="rgb(0,134,229)" /><sodipodi:guide
       position="-192.80302,-227.30857"
       orientation="0,1"
       id="guide41"
       inkscape:label=""
       inkscape:locked="false"
       inkscape:color="rgb(0,134,229)" /><sodipodi:guide
       position="243.35432,-316.1772"
       orientation="0,1"
       id="guide43"
       inkscape:locked="false"
       inkscape:label=""
       inkscape:color="rgb(0,134,229)" /><sodipodi:guide
       position="-377.33857,-438.00003"
       orientation="0,1"
       id="guide44"
       inkscape:locked="false"
       inkscape:label=""
       inkscape:color="rgb(0,134,229)" /></sodipodi:namedview><desc
     id="desc1">back_ply.dxf - scale = 1.000000, origin = (0.000000, 0.000000), method = manual</desc><defs
     id="defs4"><rect
       x="-398.05905"
       y="961.25582"
       width="297.30792"
       height="180.27348"
       id="rect29" /><marker
       id="DistanceX"
       orient="auto"
       refX="0.0"
       refY="0.0"
       style="overflow:visible"><path
         d="M 3,-3 L -3,3 M 0,-5 L  0,5"
         style="stroke:#000000; stroke-width:0.5"
         id="path1" /></marker><pattern
       id="Hatch"
       patternUnits="userSpaceOnUse"
       width="8"
       height="8"
       x="0"
       y="0"><path
         d="M8 4 l-4,4"
         stroke="#000000"
         stroke-width="0.25"
         linecap="square"
         id="path2" /><path
         d="M6 2 l-4,4"
         stroke="#000000"
         stroke-width="0.25"
         linecap="square"
         id="path3" /><path
         d="M4 0 l-4,4"
         stroke="#000000"
         stroke-width="0.25"
         linecap="square"
         id="path4" /></pattern><symbol
       id="*MODEL_SPACE" /><symbol
       id="*PAPER_SPACE" /></defs><g
     inkscape:groupmode="layer"
     inkscape:label="0"
     id="g23"><path
       d="M 292.913386,806.929134 A 9.448819,9.448819 -0.000000 0, 0 274.015748,806.929134 A 9.448819,9.448819 -0.000000 0, 0 292.913386,806.929134 z"
       style="fill:none;stroke:#000000"
       id="path5" /><path
       d="M 9.448819,769.133858 A 9.448819,9.448819 -0.000000 0, 0 -9.448819,769.133858 A 9.448819,9.448819 -0.000000 0, 0 9.448819,769.133858 z"
       style="fill:none;stroke:#000000"
       id="path6" /><path
       d="M -274.015748,806.929134 A 9.448819,9.448819 -0.000000 0, 0 -292.913386,806.929134 A 9.448819,9.448819 -0.000000 0, 0 -274.015748,806.929134 z"
       style="fill:none;stroke:#000000"
       id="path7" /><path
       d="M -357.118110,1499.858268 A 20.220472,20.220472 -0.000000 0, 0 -397.559055,1499.858268 A 20.220472,20.220472 -0.000000 0, 0 -357.118110,1499.858268 z"
       style="fill:none;stroke:#000000"
       id="path8" /><path
       d="M -274.015748,769.133858 A 9.448819,9.448819 -0.000000 0, 0 -292.913386,769.133858 A 9.448819,9.448819 -0.000000 0, 0 -274.015748,769.133858 z"
       style="fill:none;stroke:#000000"
       id="path9" /><path
       d="M 9.448819,806.929134 A 9.448819,9.448819 -0.000000 0, 0 -9.448819,806.929134 A 9.448819,9.448819 -0.000000 0, 0 9.448819,806.929134 z"
       style="fill:none;stroke:#000000"
       id="path10" /><path
       d="M 292.913386,769.133858 A 9.448819,9.448819 -0.000000 0, 0 274.015748,769.133858 A 9.448819,9.448819 -0.000000 0, 0 292.913386,769.133858 z"
       style="fill:none;stroke:#000000"
       id="path11" /><path
       d="M 283.464567,844.724409 L 301.281431,895.118110 A 18.897638,18.897638 0.0 1 1 265.647703,895.118110 L 283.464567,844.724409 z"
       style="fill:none;stroke:#000000"
       id="path12" /><path
       d="M 18.897638,712.440945 A 18.897638,18.897638 -0.000000 0, 0 -18.897638,712.440945 A 18.897638,18.897638 -0.000000 0, 0 18.897638,712.440945 z"
       style="fill:none;stroke:#000000"
       id="path13" /><path
       d="M -283.464567,844.724409 L -265.647703,895.118110 A 18.897638,18.897638 0.0 1 1 -301.281431,895.118110 L -283.464567,844.724409 z"
       style="fill:none;stroke:#000000"
       id="path14" /><path
       d="M 377.338574,1520.456693 L 263.952756,1520.456693 A 20.598425,20.598425 0.0 0 1 263.952756,1479.259843 L 377.338583,1479.259843 A 20.598425,20.598425 0.0 1 1 377.338574,1520.456693 z"
       style="fill:none;stroke:#000000"
       id="path15" /><path
       d="M -264.566929,712.440945 A 18.897638,18.897638 -0.000000 0, 0 -302.362205,712.440945 A 18.897638,18.897638 -0.000000 0, 0 -264.566929,712.440945 z"
       style="fill:none;stroke:#000000"
       id="path16" /><path
       d="M 0.000000,844.724409 L 17.816864,895.118110 A 18.897638,18.897638 0.0 1 1 -17.816864,895.118110 L 0.000000,844.724409 z"
       style="fill:none;stroke:#000000"
       id="path17" /><path
       d="M 302.362205,712.440945 A 18.897638,18.897638 -0.000000 0, 0 264.566929,712.440945 A 18.897638,18.897638 -0.000000 0, 0 302.362205,712.440945 z"
       style="fill:none;stroke:#000000"
       id="path18" /><path
       d="M -484.687660,631.784781 A 6.047244,6.047244 -0.000000 0, 0 -496.782148,631.784781 A 6.047244,6.047244 -0.000000 0, 0 -484.687660,631.784781 z"
       style="fill:none;stroke:#000000"
       id="path19" /><path
       d="M 496.782148,1613.254589 A 6.047244,6.047244 -0.000000 0, 0 484.687660,1613.254589 A 6.047244,6.047244 -0.000000 0, 0 496.782148,1613.254589 z"
       style="fill:none;stroke:#000000"
       id="path20" /><path
       d="M 496.782148,631.784781 A 6.047244,6.047244 -0.000000 0, 0 484.687660,631.784781 A 6.047244,6.047244 -0.000000 0, 0 496.782148,631.784781 z"
       style="fill:none;stroke:#000000"
       id="path21" /><path
       d="M -484.687660,1613.254589 A 6.047244,6.047244 -0.000000 0, 0 -496.782148,1613.254589 A 6.047244,6.047244 -0.000000 0, 0 -484.687660,1613.254589 z"
       style="fill:none;stroke:#000000"
       id="path22" /><path
       d="M 542.362205,1664.881890 L 542.362205,580.157480 L -542.362205,580.157480 L -542.362205,1664.881890 L 542.362205,1664.881890 z"
       style="fill:none;stroke:#000000"
       id="path23" /><path
       style="fill:#ff0000;stroke-width:0.623712"
       d="m -194.28619,1308.6632 v -41.1651 h 41.16497 41.16497 v 41.1651 41.165 h -41.16497 -41.16497 z m 70.47941,0 v -29.3145 h -29.31444 -29.31446 v 29.3145 29.3145 h 29.31446 29.31444 z m -46.98628,17.6719 c -0.22869,-0.2289 -0.4158,-8.2279 -0.4158,-17.7759 v -17.3599 h 17.77578 17.77579 v 17.7758 17.7758 h -17.35999 c -9.54798,0 -17.54707,-0.1872 -17.77578,-0.4158 z m 82.537853,17.5678 v -5.9252 h -5.925256 -5.925267 v -11.5154 -11.5153 l 5.769334,-0.1793 5.769336,-0.1793 0.179023,-5.7463 0.179032,-5.7461 5.746233,-0.1791 5.746235,-0.179 0.179331,-5.7693 0.179331,-5.7693 h -5.948666 -5.948666 v -11.8506 -11.8506 h 5.925266 5.925266 v -5.9486 -5.9487 l 5.769325,0.1794 5.769335,0.1794 0.169688,11.6945 0.169697,11.6946 h 17.45015 17.45017 v -5.9115 -5.9115 l -11.694591,-0.1697 -11.694591,-0.1697 v -23.3892 -23.3892 l 5.769324,-0.1792 5.769335,-0.1793 v -5.5902 -5.5898 h 5.925257 5.925266 v -5.9253 -5.9253 h -17.463926 -17.463926 v -5.9252 -5.9253 h -5.901856 -5.901857 l -0.179331,5.7694 -0.179331,5.7692 -5.769336,0.1794 -5.769334,0.1792 v -5.9486 -5.9486 h -17.775783 -17.77579 v 5.9253 5.9252 h 11.85053 11.85052 v 5.9253 5.9253 h 5.925267 5.925256 v 11.5385 11.5387 h 5.925266 5.925266 v -11.5387 -11.5385 h 5.925257 5.925256 v 17.4638 17.4639 h -11.850513 -11.850532 v 5.9253 5.9252 h -47.066823 -47.06683 l -0.17934,-5.7692 -0.17933,-5.7693 -5.76933,-0.1794 -5.76933,-0.1794 v -5.9019 -5.9018 h 11.51526 11.51525 l 0.17933,-5.7693 0.17935,-5.7694 11.69458,-0.1697 11.6946,-0.1696 v 5.9389 5.9391 h -11.85052 -11.85052 v 5.9254 5.9251 h 29.6263 29.62631 v -5.9251 -5.9254 h -11.85053 -11.85051 v -17.464 -17.4638 h -5.92527 -5.92526 v 5.9389 5.9391 l -11.6946,-0.1696 -11.69458,-0.1697 -0.16971,-11.6947 -0.16967,-11.6945 h -5.59965 -5.59965 v -41.4769 -41.4768 h 11.53868 11.53866 v -17.464 -17.4638 h -11.53866 -11.53868 v 5.9253 5.9253 h 5.61341 5.61341 v 5.9252 5.9253 h -5.61341 -5.61341 v -5.9253 -5.9252 h -5.92525 -5.92526 v -5.9253 -5.9253 h 5.92526 5.92525 v -5.9251 -5.9253 h 11.53868 11.53866 v 5.9253 5.9251 h 11.85052 11.85053 v 5.9253 5.9253 h -5.92527 -5.92526 v 11.5387 11.5385 h 23.70104 23.70105 v -5.6133 -5.6134 h 5.925267 5.925256 v -5.9253 -5.9252 h -5.925256 -5.925267 v -5.9253 -5.9253 h 11.850523 11.850532 v 11.8506 11.8505 h 5.925257 5.925256 v 5.6134 5.6133 h 5.613413 5.613404 v -17.464 -17.4638 h -5.613404 -5.613413 v -5.9251 -5.9253 h 5.613413 5.613404 v -17.7758 -17.7758 h -5.599648 -5.599637 l -0.169697,11.6945 -0.169688,11.6946 -5.746234,0.179 -5.746233,0.1791 -0.179033,5.7462 -0.179022,5.7463 -5.769336,0.1793 -5.769334,0.1792 v -5.9486 -5.9486 h -5.925256 -5.925267 v -11.8505 -11.8505 h 5.925267 5.925256 v -5.9254 -5.9252 h -5.925256 -5.925267 v -17.46392 -17.46391 h 5.925267 5.925256 v -5.92529 -5.92526 h 11.850532 11.850513 v 5.92526 5.92529 h 5.613413 5.613404 v -5.92529 -5.92526 h 17.775769 17.775788 v 5.92526 5.92529 h -17.775788 -17.775769 v 11.53869 11.53865 h 5.901847 5.901856 l 0.179332,-5.76936 0.179341,-5.76929 23.545114,-0.16354 23.5451235,-0.16336 v -11.53124 -11.5311 h 5.9252465 5.925277 v 11.53872 11.5386 H 11.850515 5.9252685 v 5.9253 5.92527 H 17.775792 29.626293 V 978.71976 961.25582 H 47.09023 64.554156 v 5.92526 5.92529 h -5.613414 -5.613403 v 5.61339 5.61338 h -5.925256 -5.925257 v 11.85057 11.85049 H 29.626293 17.775792 v 5.9252 5.9254 h 5.925245 5.925256 v 11.8505 11.8505 h 5.925267 5.925266 v -11.8505 -11.8505 h 5.925257 5.925256 v -11.8506 -11.85049 h 11.53868 11.53866 v -11.53865 -11.53869 h 5.925255 5.925267 v -5.92529 -5.92526 h 5.925256 5.925263 v 5.92526 5.92529 h -5.925263 -5.925256 v 5.61339 5.61338 h 5.925256 5.925263 v 17.77586 17.7758 h -5.925263 -5.925256 v -5.9391 -5.9391 l -11.694601,0.1697 -11.694581,0.1697 -0.179341,5.7694 -0.179341,5.7694 h -5.576239 -5.576226 l -0.169699,11.6945 -0.169677,11.6946 -5.769345,0.1794 -5.769325,0.1793 v 11.827 11.8272 h 11.528945 11.528964 l 0.165626,-17.6199 0.165658,-17.6199 5.755476,-0.179 5.755486,-0.1792 0.16977,11.7177 0.16979,11.718 17.619848,0.1655 17.619851,0.1657 v 5.9156 5.9155 h 5.92527 5.92526 v -5.9251 -5.9253 h 5.92525 5.92527 v 5.9253 5.9251 h -5.92527 -5.92525 v 5.9391 5.939 l 11.69458,-0.1697 11.69461,-0.1697 0.16967,-11.6947 0.16969,-11.6944 h 17.45017 17.45018 v 5.9253 5.9251 h 5.92525 5.92527 v 11.8506 11.8505 h -5.92527 -5.92525 v 5.6134 5.6133 h 5.92525 5.92527 v 5.9253 5.9252 h -5.92527 -5.92525 v 5.9254 5.9251 h 5.92525 5.92527 v 5.902 5.9018 l -5.76935,0.1793 -5.76932,0.1793 -0.17933,5.7694 -0.17934,5.7692 h -5.59 -5.59 v 5.9253 5.9253 h 5.59 5.59 l 0.17934,5.7694 0.17933,5.7693 5.76932,0.1792 5.76935,0.1794 v 5.9019 5.9019 h -17.46394 -17.46392 v -11.8505 -11.8506 H 147.5078 135.65729 v -5.9253 -5.9253 h -5.92527 -5.92525 v -11.8503 -11.8507 h -5.92526 -5.92527 v 5.9253 5.9254 h -5.92526 -5.92526 v 5.9251 5.9252 h -5.925263 -5.925256 v 5.9253 5.9253 h 5.925256 5.925263 v 5.9389 5.9392 l -11.694587,-0.1697 -11.694592,-0.1697 -0.179032,-5.7464 -0.179033,-5.7461 -5.746234,-0.179 -5.746223,-0.1791 -0.179341,-5.7692 -0.179341,-5.7695 h -5.576239 -5.576226 l -0.169699,-11.6944 -0.169677,-11.6946 -11.671376,-0.1697 -11.671377,-0.1696 -0.179146,-5.7557 -0.179146,-5.7555 -5.769345,-0.1795 -5.769314,-0.1792 v -5.9157 -5.9155 l 11.69458,0.1696 11.694591,0.1698 0.179341,5.7693 0.179331,5.7692 h 5.901847 5.901857 v -5.9252 -5.9253 h 5.613403 5.613414 v -5.6133 -5.6134 h -5.613414 -5.613403 v -5.9253 -5.9252 h -5.901857 -5.901847 l -0.179331,5.7692 -0.179341,5.7695 -11.694591,0.1696 -11.69458,0.1697 v -17.7895 -17.7895 h 5.925245 5.925256 v -5.9253 -5.9253 h -5.925256 -5.925245 v -11.8505 -11.8505 H 11.850515 5.9252685 v 23.701 23.701 H -5.9252645 -17.775788 v -5.9251 -5.9253 h -5.925255 -5.925267 v 11.8504 11.8506 h -5.948666 -5.948666 l 0.179332,5.7692 0.179341,5.7695 11.694591,0.1696 11.69459,0.1697 v 11.5249 11.5248 h -5.925255 -5.925267 v -5.9486 -5.9487 l -5.769335,0.1794 -5.769324,0.1794 -0.179341,5.7693 -0.179332,5.7692 h -17.440516 -17.440517 v -11.5385 -11.5387 h -5.925266 -5.925266 v 5.6134 5.6133 h -5.925256 -5.925267 v 5.9019 5.9019 l 5.769334,0.1792 5.769336,0.1795 0.179146,5.7555 0.179156,5.7557 11.671376,0.1696 11.671367,0.1697 0.163427,23.545 0.163427,23.5452 h 11.507754 11.507765 l 0.179332,5.7693 0.179341,5.7692 11.694591,0.1698 11.69459,0.1696 v -5.9391 -5.9388 H 2.1047668e-6 17.775792 v -5.9253 -5.9253 h 5.925245 5.925256 v -5.9253 -5.9253 H 17.775792 5.9252685 v 5.9253 5.9253 H -17.775788 -41.476833 v -5.9019 -5.9018 l -5.769335,-0.1794 -5.769324,-0.1793 v -11.5385 -11.5387 l 5.769324,-0.1795 5.769335,-0.1793 v 11.874 11.8738 h 17.77579 17.7757785 v -5.9327 -5.9327 l 23.5451135,0.1635 23.545114,0.1633 0.169698,11.6946 0.169688,11.6946 h -5.939033 -5.939023 v 5.9253 5.9253 h -5.925256 -5.925245 v 5.9252 5.9253 H 5.9252685 -5.9252645 v 5.9253 5.9252 H 11.850515 29.626293 v -5.9252 -5.9253 h 5.948667 5.948675 l -0.179331,5.7694 -0.179341,5.7692 -5.746233,0.1791 -5.746234,0.1789 -0.179023,5.7463 -0.179022,5.7463 -11.694602,0.1697 -11.6945805,0.1696 v 5.5762 5.5764 l 5.7693245,0.1793 5.769325,0.1792 0.169697,11.6947 0.169689,11.6945 h 5.911499 5.91149 v -5.9487 -5.9486 l 5.769346,0.1793 5.769324,0.1794 0.169698,11.6947 0.169688,11.6944 H 29.640059 17.775792 v 11.8505 11.8506 h 5.925245 5.925256 v 5.9252 5.9254 h 5.925267 5.925266 v -5.9254 -5.9252 h 5.925257 5.925256 v -5.9252 -5.9254 h 5.613403 5.613414 v -11.8505 -11.8505 h -5.613414 -5.613403 v -5.9251 -5.9254 h 11.53868 11.53866 v 5.9254 5.9251 h 17.775778 17.775783 v -5.9251 -5.9254 h 5.94866 5.94868 l -0.17934,-5.7693 -0.17932,-5.7694 -11.69461,-0.1697 -11.69459,-0.1696 v 5.9389 5.9391 h -5.948662 -5.948676 l 0.179331,-5.7693 0.179341,-5.7694 5.769335,-0.1792 5.769331,-0.1793 v -11.5154 -11.5152 h -5.925263 -5.925256 v 5.9253 5.9253 h -5.925267 -5.925255 v 5.6132 5.6136 H 58.940742 41.476826 v -5.5901 -5.5901 l 5.769325,-0.1792 5.769345,-0.1793 0.165637,-17.6198 0.165627,-17.6199 h 5.593982 5.593993 l 0.165626,17.6199 0.165658,17.6198 5.769324,0.1793 5.769336,0.1792 v -5.9486 -5.9486 h 5.925255 5.925267 v -5.9252 -5.9253 h 11.850519 11.85052 v -11.8505 -11.8506 h 5.92527 5.92526 v 5.9253 5.9253 h 11.85052 11.85051 v 11.8505 11.8505 h 5.92527 5.92526 v 11.5387 11.5387 h 11.53866 11.53868 v -5.6136 -5.6132 h 5.92525 5.92527 v 5.5898 5.5902 l -5.76935,0.1793 -5.76932,0.1792 -0.17933,5.7694 -0.17934,5.7693 h 5.94866 5.94868 v 5.9254 5.9251 h -5.92527 -5.92525 v 5.9253 5.9252 h 5.92525 5.92527 v 11.8271 11.8271 l -5.76935,0.1794 -5.76932,0.1795 v 5.6132 5.6135 l 5.76932,0.1792 5.76935,0.1795 v 5.9018 5.9018 h -5.92527 -5.92525 v 5.9254 5.9253 h 5.92525 5.92527 v 5.9486 5.9485 l -5.76935,-0.1794 -5.76932,-0.1791 -0.17933,-5.7693 -0.17934,-5.7693 h -5.59 -5.59 v -11.8507 -11.8504 H 159.35833 147.5078 v 5.9252 5.9252 h 5.94867 5.94866 l -0.17933,5.7695 -0.17933,5.7692 -5.76934,0.1793 -5.76933,0.1793 v 5.902 5.9019 h 5.92527 5.92526 v 11.5385 11.5388 H 147.5078 135.65729 v -5.9253 -5.9252 h -5.92527 -5.92525 v -17.4641 -17.4639 h -5.92526 -5.92527 v 5.9254 5.9253 h -5.92526 -5.92526 v 17.4638 17.464 H 76.716541 53.327339 v -5.9253 -5.9252 h -5.925256 -5.925257 v 5.9252 5.9253 H 35.57496 29.673113 l -0.179342,-5.7694 -0.17932,-5.7694 -5.769345,-0.1793 -5.769314,-0.1793 v 5.9486 5.9488 H 11.850515 5.9252685 v -11.5153 -11.5154 l 5.7693245,-0.1794 5.769325,-0.1791 0.179341,-5.7693 0.179331,-5.7693 H 5.9720778 -5.8784551 l -0.1793311,5.7693 -0.1793414,5.7693 h -5.6134034 -5.613403 l -0.179331,-5.7693 -0.179332,-5.7693 h -5.901856 -5.901857 v 11.5386 11.5387 h -5.925266 -5.925257 v -11.5387 -11.5386 h -17.440516 -17.440526 l -0.179331,5.7693 -0.179331,5.7693 -5.769336,0.1791 -5.769334,0.1794 v 5.5902 5.59 h 17.463936 17.463926 v 5.9252 5.9253 h -17.463926 -17.463936 z m 152.809363,-11.5387 v -5.6133 h 11.850523 11.850522 v -5.9019 -5.902 l -5.769335,-0.1793 -5.769325,-0.1793 -0.179341,-5.7692 -0.179341,-5.7695 h 5.948666 5.948676 v -5.9252 -5.9252 h -5.925267 -5.925255 v 5.9486 5.9487 l -5.769336,-0.1794 -5.769324,-0.1793 -0.169698,-11.6945 -0.169697,-11.6947 h -5.576239 -5.576227 l -0.179341,5.7694 -0.179321,5.7693 -5.769345,0.1792 -5.769325,0.1795 v 5.9018 5.9018 H 29.626293 17.775792 v 5.9254 5.9253 h 5.925245 5.925256 v 5.9486 5.9485 l 5.769346,-0.1794 5.769324,-0.1791 0.169698,-11.6946 0.169688,-11.6947 h 5.9115 5.91149 v 17.4639 17.4641 h 5.613403 5.613414 z m 82.953644,0 v -5.6133 h -5.92525 -5.92526 v 5.6133 5.6135 h 5.92526 5.92525 z m -177.13411,-23.3891 v -5.9254 h 11.850522 11.8505235 v -5.9252 -5.9252 H 5.9252685 17.775792 v -5.9254 -5.9252 H -5.9252645 -29.62631 v 5.9252 5.9254 h -5.925266 -5.925257 v 11.8504 11.8507 h 5.925257 5.925266 z m 177.13411,0 v -5.9254 h -5.92525 -5.92526 v 5.9254 5.9253 h 5.92526 5.92525 z m -200.835145,-11.8506 v -5.9252 h -5.613404 -5.613413 v 5.9252 5.9252 h 5.613413 5.613404 z m 188.984635,-23.701 v -17.7759 h -17.77578 -17.77579 v 17.7759 17.7758 h 17.77579 17.77578 z m -23.70105,0 v -5.9254 h 5.92527 5.92526 v 5.9254 5.9252 h -5.92526 -5.92527 z m 47.40209,0 v -5.9254 h 11.53866 11.53868 v -5.9252 -5.9253 h -5.61342 -5.6134 v -5.9252 -5.9253 h 5.6134 5.61342 v -5.9251 -5.9254 h -11.53868 -11.53866 v 5.9254 5.9251 h -5.92526 -5.92527 v 17.7758 17.7758 h 5.92527 5.92526 z m -177.134118,-11.8506 v -5.9253 h 11.8505235 11.850533 v -11.8505 -11.8505 H 0.02340162 -5.8784551 l -0.1793311,-5.7693 -0.1793414,-5.7694 H -17.775788 -29.314457 l -0.179022,5.7462 -0.179034,5.7464 -5.746233,0.1788 -5.746223,0.1792 -0.169699,11.6947 -0.169697,11.6944 h 5.939033 5.939022 v 5.9253 5.9252 h 5.925267 5.925255 z m -11.718,-11.6945 0.179331,-5.7693 5.769335,-0.1794 5.769334,-0.1794 v 5.9487 5.9486 h -5.948665 -5.948677 z m 117.748989,11.6711 v -5.9487 l -5.769335,0.1794 -5.769325,0.1794 -0.179341,5.7693 -0.179341,5.7692 h 5.948666 5.948676 z m -188.360931,-41.1416 v -11.5385 h -11.85052 -11.85053 v 5.5898 5.5902 l 5.76933,0.1793 5.76935,0.1792 0.17933,5.7694 0.17932,5.7693 h 5.90186 5.90186 z m 235.63049,-29.4702 0.17933,-5.7694 h -5.94867 -5.94865 v 5.9486 5.9486 l 5.76933,-0.1792 5.76932,-0.1794 z m -259.33154,-11.6947 v -5.9252 h 5.92526 5.92527 v -5.9253 -5.9253 h -5.92527 -5.92526 v 5.9253 5.9253 h -17.77578 -17.77578 v -5.9253 -5.9253 h 5.92526 5.92526 v -5.9389 -5.9392 l -11.6946,0.1696 -11.69458,0.1699 v 11.5386 11.5387 l 5.76933,0.1792 5.76933,0.1794 v 5.4861 c 0,3.0174 0.18712,5.6731 0.41581,5.9019 0.22868,0.2287 8.22779,0.4158 17.77578,0.4158 h 17.35997 z m 35.551573,-23.7011 v -5.9253 h -5.925256 -5.925267 v 5.9253 5.9253 h 5.925267 5.925256 z m -23.701043,-11.8505 v -5.9251 h 5.92526 5.92526 v -11.8507 -11.8505 h -11.85052 -11.85053 v 5.9254 5.9251 h 5.92526 5.92527 v 5.9253 5.9254 h -11.85053 -11.85051 v 5.9251 5.9252 h 11.85051 11.85053 z m 283.1651,-11.8505 v -17.7758 h 5.6134 5.61342 v -5.9252 -5.9253 h -5.61342 -5.6134 v -5.6133 -5.6134 h -5.92526 -5.92526 v 5.6134 5.6133 h -5.92526 -5.92527 v -5.6133 -5.6134 h -17.77578 -17.77578 v 5.5899 5.59 l 5.76933,0.1794 5.76935,0.1794 0.16967,11.6945 0.16969,11.6945 h 5.9115 5.91151 v 5.9253 5.9254 h 5.92526 5.92525 v 5.9251 5.9252 h 11.85053 11.85052 z m -35.55156,-11.8738 v -5.9487 l 5.76933,0.1792 5.76934,0.1795 0.17932,5.7694 0.17934,5.7691 h -5.94867 -5.94866 z m 23.70104,-11.8272 v -5.9253 h 5.92526 5.92526 v 5.9253 5.9252 h -5.92526 -5.92526 z m -306.86615,23.701 v -5.9253 h 5.92526 5.92527 v -5.9251 -5.9254 h -5.92527 -5.92526 v -5.9252 -5.9253 h -5.92526 -5.92526 v 5.9253 5.9252 h 5.92526 5.92526 v 5.9117 5.9114 l -11.6946,0.1696 -11.69458,0.1698 -0.17935,5.7693 -0.17933,5.7694 h 11.87394 11.87392 z m 224.04502,-11.6944 0.179341,-5.7694 5.746223,-0.1792 5.746235,-0.179 0.179022,-5.7462 0.179033,-5.7461 5.769335,-0.1794 5.769331,-0.1794 v -5.59 -5.5899 H 88.255201 76.404679 v 5.5899 5.59 l -5.769336,0.1794 -5.769324,0.1794 -0.169698,11.6945 -0.169697,11.6945 h 5.915622 5.915613 z m 35.41904,-0.1794 v -5.9487 l -5.76933,0.1792 -5.76934,0.1795 -0.17933,5.7694 -0.17934,5.7691 h 5.94867 5.94867 z m -23.701039,-46.755 v -5.9253 H 76.404679 64.554156 v 5.5095 c 0,3.0302 0.187113,5.6966 0.415803,5.9252 0.228701,0.2288 5.561434,0.4159 11.850534,0.4159 h 11.434708 z m 23.701039,0 v -5.9253 h -5.92526 -5.92526 v 5.5095 c 0,3.0302 0.18712,5.6966 0.4158,5.9252 0.2287,0.2288 2.89507,0.4159 5.92526,0.4159 h 5.50946 z m 70.47943,0 v -5.9253 h -11.53868 -11.53866 v 5.9253 5.9253 h 11.53866 11.53868 z m -223.912503,-11.8504 v -5.9253 h 5.925257 5.925266 v -11.8506 -11.8505 h -5.925266 -5.925257 v 11.8505 11.8506 h -5.925256 -5.925256 v 5.9253 5.9251 h 5.925256 5.925256 z m -34.927842,-29.6264 v -11.8505 h 5.925257 5.925256 v -23.38922 -23.38921 h -11.850513 -11.850532 v 17.44044 17.44049 l 5.769334,0.1794 5.769336,0.1793 0.179331,5.7694 0.179331,5.7694 h -5.948666 -5.948666 v 11.8505 11.8505 h 5.925266 5.925266 z m 70.4794105,5.9253 v -5.9253 h -5.9252665 -5.925257 v 5.9253 5.9252 h 5.925257 5.9252665 z m -35.5515685,-23.7012 v -5.9252 h 5.925257 5.925266 v 5.9252 5.9254 h 5.925267 5.925255 v -5.9254 -5.9252 h 5.925257 5.9252665 v 5.9252 5.9254 H 2.1047671e-6 5.9252685 v -11.8506 -11.85049 H -17.775788 -41.476833 v 5.90189 5.9017 l -5.769335,0.1794 -5.769324,0.1793 -0.179341,5.7694 -0.179332,5.7694 h 5.948667 5.948665 z m 212.685683,329.9435 v -5.9252 h 5.6134 5.61342 v 5.9252 5.9253 h -5.61342 -5.6134 z m -365.49504,-140.9355 v -5.9486 h 5.94866 5.94867 l -0.17934,5.7693 -0.17933,5.7694 -5.76933,0.1793 -5.76933,0.1792 z m 70.91766,-112.3729 c -0.24103,-0.2412 -0.43825,-2.9175 -0.43825,-5.9477 v -5.5094 h 5.94867 5.94866 l -0.17932,5.7692 -0.17933,5.7695 -5.33109,0.1782 c -2.9321,0.098 -5.5283,-0.018 -5.76934,-0.2598 z m 117.8815128,0 c -0.2410375,-0.2412 -0.4382473,-2.9175 -0.4382473,-5.9477 v -5.5094 H 0.02340162 5.9720778 l -0.1793413,5.7692 -0.1793311,5.7695 -5.33108765,0.1782 c -2.93210395,0.098 -5.52829745,-0.018 -5.76933495,-0.2598 z M -123.80678,1061.3617 v -5.9253 h 5.92526 5.92527 v 5.9253 5.9251 h -5.92527 -5.92526 z m -70.47941,-58.9409 v -41.16498 h 41.16497 41.16497 v 41.16498 41.165 h -41.16497 -41.16497 z m 70.47941,0 v -29.31443 h -29.31444 -29.31446 v 29.31443 29.3145 h 29.31446 29.31444 z m -47.25587,-0.1559 0.16565,-17.61984 17.61985,-0.1657 17.61986,-0.16561 v 17.78545 17.7856 h -17.78551 -17.78549 z m 259.317851,35.3957 v -5.9253 h 5.925256 5.925263 v 5.9253 5.9252 h -5.925263 -5.925256 z m 23.701039,-35.2398 v -41.16498 h 41.16496 41.16499 v 41.16498 41.165 H 153.1212 111.95624 Z m 70.47943,0 V 973.10637 H 153.1212 123.80677 v 29.31443 29.3145 h 29.31443 29.31447 z m -46.77838,-0.3216 v -17.78545 l 17.61984,0.16561 17.61986,0.1657 0.16564,17.61984 0.16564,17.6199 h -17.78549 -17.78549 z"
       id="path28" /><text
       xml:space="preserve"
       style="font-style:normal;font-variant:normal;font-weight:bold;font-stretch:normal;font-size:15px;font-family:Arial;-inkscape-font-specification:'Arial, Bold';font-variant-ligatures:normal;font-variant-caps:normal;font-variant-numeric:normal;font-variant-east-asian:normal;fill:#ff0000;stroke-width:7.4;stroke-linecap:round"
       x="-194.27887"
       y="1401.0065"
       id="text29"><tspan
         sodipodi:role="line"
         x="-194.27887"
         y="1401.0065"
         style="font-style:normal;font-variant:normal;font-weight:bold;font-stretch:normal;font-size:15px;font-family:Arial;-inkscape-font-specification:'Arial, Bold';font-variant-ligatures:normal;font-variant-caps:normal;font-variant-numeric:normal;font-variant-east-asian:normal"
         id="tspan30">Verbum Horologium</tspan><tspan
         sodipodi:role="line"
         x="-194.27887"
         y="1419.7565"
         style="font-style:normal;font-variant:normal;font-weight:bold;font-stretch:normal;font-size:15px;font-family:Arial;-inkscape-font-specification:'Arial, Bold';font-variant-ligatures:normal;font-variant-caps:normal;font-variant-numeric:normal;font-variant-east-asian:normal"
         id="tspan32">Created by Isaac Pawley</tspan><tspan
         sodipodi:role="line"
         x="-194.27887"
         y="1438.5065"
         style="font-style:normal;font-variant:normal;font-weight:bold;font-stretch:normal;font-size:15px;font-family:Arial;-inkscape-font-specification:'Arial, Bold';font-variant-ligatures:normal;font-variant-caps:normal;font-variant-numeric:normal;font-variant-east-asian:normal"
         id="tspan31">https://github.com/i-Saac-IV/verbum-horologium</tspan></text><text
       xml:space="preserve"
       style="font-style:normal;font-variant:normal;font-weight:bold;font-stretch:normal;font-size:15px;font-family:Arial;-inkscape-font-specification:'Arial, Bold';font-variant-ligatures:normal;font-variant-caps:normal;font-variant-numeric:normal;font-variant-east-asian:normal;text-align:center;text-anchor:middle;fill:#ff0000;stroke-width:7.4;stroke-linecap:round"
       x="320.10367"
       y="1571.257"
       id="text29-5-0"><tspan
         sodipodi:role="line"
         x="320.10367"
         y="1571.257"
         style="font-style:normal;font-variant:normal;font-weight:bold;font-stretch:normal;font-size:15px;font-family:Arial;-inkscape-font-specification:'Arial, Bold';font-variant-ligatures:normal;font-variant-caps:normal;font-variant-numeric:normal;font-variant-east-asian:normal;text-align:center;text-anchor:middle"
         id="tspan38">Raspberry Pi Pico W</tspan><tspan
         sodipodi:role="line"
         x="320.10367"
         y="1590.007"
         style="font-style:normal;font-variant:normal;font-weight:bold;font-stretch:normal;font-size:15px;font-family:Arial;-inkscape-font-specification:'Arial, Bold';font-variant-ligatures:normal;font-variant-caps:normal;font-variant-numeric:normal;font-variant-east-asian:normal;text-align:center;text-anchor:middle"
         id="tspan43">Programming</tspan></text><g
       id="g43"
       transform="translate(-115.03277,81.381865)"><text
         xml:space="preserve"
         style="font-style:normal;font-variant:normal;font-weight:bold;font-stretch:normal;font-size:15px;font-family:Arial;-inkscape-font-specification:'Arial, Bold';font-variant-ligatures:normal;font-variant-caps:normal;font-variant-numeric:normal;font-variant-east-asian:normal;fill:#ff0000;stroke-width:7.4;stroke-linecap:round"
         x="-316.67715"
         y="1489.9191"
         id="text29-5"><tspan
           sodipodi:role="line"
           x="-316.67715"
           y="1489.9191"
           style="font-style:normal;font-variant:normal;font-weight:bold;font-stretch:normal;font-size:15px;font-family:Arial;-inkscape-font-specification:'Arial, Bold';font-variant-ligatures:normal;font-variant-caps:normal;font-variant-numeric:normal;font-variant-east-asian:normal"
           id="tspan37">12 – 24V – 50W</tspan></text><path
         style="fill:#ff0000;stroke-width:0.592264"
         d="m -303.54587,1519.9872 c -4.44423,-1.3911 -6.98359,-5.0082 -6.98359,-9.9479 0,-3.2059 1.44665,-5.9457 4.22624,-8.0041 1.9738,-1.4619 6.25342,-1.9654 8.99985,-1.0589 2.36689,0.7812 5.517,4.0268 6.07813,6.2625 l 0.36889,1.47 h 10.22638 10.22636 l 0.33882,-1.6941 c 0.41748,-2.0875 2.93734,-5.1627 5.18077,-6.3228 2.16011,-1.1169 6.65087,-1.1122 8.81994,0.019 1.64302,0.8496 4.16873,3.558 4.16873,4.4703 0,1.3606 -1.95029,0.8761 -3.76113,-0.9347 -1.9549,-1.955 -3.07703,-2.3225 -6.26619,-2.0523 -3.43882,0.2914 -5.9638,3.5514 -5.9638,7.7001 0,4.3232 3.00929,7.1156 7.66831,7.1156 1.89847,0 2.86478,-0.4227 4.64787,-2.0337 1.53486,-1.3868 2.50985,-1.8737 3.06427,-1.5312 1.10781,0.6846 -0.53584,3.198 -3.12317,4.7756 -2.28114,1.3908 -6.85035,1.5346 -9.25483,0.2912 -2.08161,-1.0763 -4.6611,-4.0824 -5.13976,-5.9895 l -0.36017,-1.435 h -9.91051 -9.91052 l -1.72249,3.3517 c -1.21101,2.3565 -2.33799,3.6642 -3.79541,4.4035 -2.63258,1.3358 -5.76587,1.7979 -7.82299,1.1541 z m 5.68105,-2.6235 c 5.56361,-2.3248 6.12739,-10.541 0.93382,-13.609 -3.60134,-2.1274 -9.13568,-0.4476 -10.66142,3.2357 -1.71748,4.1465 -0.28494,8.1661 3.61996,10.1572 2.45367,1.2511 3.53834,1.2894 6.10764,0.2161 z m -7.33428,-6.8782 c 0,-1.0793 0.39486,-1.1845 4.44198,-1.1845 4.04714,0 4.44198,0.1052 4.44198,1.1845 0,1.0792 -0.39484,1.1846 -4.44198,1.1846 -4.04712,0 -4.44198,-0.1052 -4.44198,-1.1846 z m 78.33069,9.4068 c -2.50462,-0.7231 -5.698,-3.9529 -6.42818,-6.5011 l -0.57804,-2.0172 -10.83303,-0.1616 -10.83302,-0.1616 -1.74296,1.8658 c -1.5303,1.6383 -2.01252,1.823 -3.95191,1.5123 -2.70715,-0.4333 -4.28188,-2.2345 -4.28188,-4.8972 0,-4.866 7.00212,-6.6702 8.98631,-2.3152 l 0.68005,1.4925 h 11.09373 11.09375 l 0.3689,-1.47 c 0.56113,-2.2357 3.71122,-5.4813 6.07811,-6.2625 6.41075,-2.1158 12.54239,1.8649 13.09258,8.4994 0.42605,5.1375 -2.42911,9.2054 -7.32677,10.4386 -2.88561,0.7265 -2.82487,0.7269 -5.41764,-0.023 z m 6.19538,-2.6964 c 7.21725,-3.4248 4.84546,-14.4098 -3.11128,-14.4098 -6.63626,0 -10.20913,8.4263 -5.46331,12.8846 2.71119,2.5471 5.40958,3.0271 8.57459,1.5252 z m -4.57046,-4.0452 c 0,-1.1845 -0.29613,-1.4806 -1.48065,-1.4806 -1.08582,0 -1.48066,-0.316 -1.48066,-1.1846 0,-0.8687 0.39484,-1.1845 1.48066,-1.1845 1.25034,0 1.48065,-0.2764 1.48065,-1.7768 0,-1.382 0.26322,-1.7767 1.18453,-1.7767 0.92131,0 1.18452,0.3947 1.18452,1.7767 0,1.5793 0.19742,1.7768 1.7768,1.7768 1.38195,0 1.77679,0.2632 1.77679,1.1845 0,0.9214 -0.39484,1.1846 -1.77679,1.1846 -1.50041,0 -1.7768,0.2303 -1.7768,1.4806 0,1.0858 -0.31588,1.4807 -1.18452,1.4807 -0.86865,0 -1.18453,-0.3949 -1.18453,-1.4807 z"
         id="path38" /></g></g></svg>
