<?xml version="1.0" encoding="UTF-8" standalone="no"?>
<svg
   viewBox="0 0 793.7007874015749 1122.5196850393702"
   width="793.7007874015749"
   height="1122.5196850393702"
   version="1.1"
   id="svg10"
   sodipodi:docname="backing_ply.svg"
   inkscape:version="1.3.2 (091e20e, 2023-11-25, custom)"
   xmlns:inkscape="http://www.inkscape.org/namespaces/inkscape"
   xmlns:sodipodi="http://sodipodi.sourceforge.net/DTD/sodipodi-0.dtd"
   xmlns="http://www.w3.org/2000/svg"
   xmlns:svg="http://www.w3.org/2000/svg">
  <sodipodi:namedview
     id="namedview10"
     pagecolor="#ffffff"
     bordercolor="#000000"
     borderopacity="0.25"
     inkscape:showpageshadow="2"
     inkscape:pageopacity="0.0"
     inkscape:pagecheckerboard="0"
     inkscape:deskcolor="#d1d1d1"
     inkscape:zoom="1.0520974"
     inkscape:cx="14.257235"
     inkscape:cy="1139.1531"
     inkscape:window-width="2560"
     inkscape:window-height="1377"
     inkscape:window-x="-8"
     inkscape:window-y="-8"
     inkscape:window-maximized="1"
     inkscape:current-layer="g10" />
  <desc
     id="desc1">backing_ply.dxf - scale = 1.000000, origin = (0.000000, 0.000000), method = manual</desc>
  <defs
     id="defs4">
    <marker
       id="DistanceX"
       orient="auto"
       refX="0.0"
       refY="0.0"
       style="overflow:visible">
      <path
         d="M 3,-3 L -3,3 M 0,-5 L  0,5"
         style="stroke:#000000; stroke-width:0.5"
         id="path1" />
    </marker>
    <pattern
       id="Hatch"
       patternUnits="userSpaceOnUse"
       width="8"
       height="8"
       x="0"
       y="0">
      <path
         d="M8 4 l-4,4"
         stroke="#000000"
         stroke-width="0.25"
         linecap="square"
         id="path2" />
      <path
         d="M6 2 l-4,4"
         stroke="#000000"
         stroke-width="0.25"
         linecap="square"
         id="path3" />
      <path
         d="M4 0 l-4,4"
         stroke="#000000"
         stroke-width="0.25"
         linecap="square"
         id="path4" />
    </pattern>
    <symbol
       id="*MODEL_SPACE" />
    <symbol
       id="*PAPER_SPACE" />
  </defs>
  <g
     inkscape:groupmode="layer"
     inkscape:label="0"
     id="g10">
    <path
       d="M -236.220472,886.299213 L 236.220472,886.299213 L 236.220472,1358.740157 L -236.220472,1358.740157 L -236.220472,886.299213 z"
       style="fill:none;stroke:#000000"
       id="path5" />
    <path
       d="M -484.687660,631.784781 A 6.047244,6.047244 -0.000000 0, 0 -496.782148,631.784781 A 6.047244,6.047244 -0.000000 0, 0 -484.687660,631.784781 z"
       style="fill:none;stroke:#000000"
       id="path6" />
    <path
       d="M 496.782148,1613.254589 A 6.047244,6.047244 -0.000000 0, 0 484.687660,1613.254589 A 6.047244,6.047244 -0.000000 0, 0 496.782148,1613.254589 z"
       style="fill:none;stroke:#000000"
       id="path7" />
    <path
       d="M 496.782148,631.784781 A 6.047244,6.047244 -0.000000 0, 0 484.687660,631.784781 A 6.047244,6.047244 -0.000000 0, 0 496.782148,631.784781 z"
       style="fill:none;stroke:#000000"
       id="path8" />
    <path
       d="M -484.687660,1613.254589 A 6.047244,6.047244 -0.000000 0, 0 -496.782148,1613.254589 A 6.047244,6.047244 -0.000000 0, 0 -484.687660,1613.254589 z"
       style="fill:none;stroke:#000000"
       id="path9" />
    <path
       d="M 542.362205,1664.881890 L 542.362205,580.157480 L -542.362205,580.157480 L -542.362205,1664.881890 L 542.362205,1664.881890 z"
       style="fill:none;stroke:#000000"
       id="path10" />
  </g>
</svg>
