<?xml version="1.0" encoding="UTF-8" standalone="no"?>
<!-- Created with Inkscape (http://www.inkscape.org/) -->

<svg
   width="287mm"
   height="287mm"
   viewBox="0 0 287 287"
   version="1.1"
   id="svg1"
   inkscape:version="1.3.2 (091e20e, 2023-11-25, custom)"
   sodipodi:docname="verbum-horologium_clock-face_60pm.svg"
   xmlns:inkscape="http://www.inkscape.org/namespaces/inkscape"
   xmlns:sodipodi="http://sodipodi.sourceforge.net/DTD/sodipodi-0.dtd"
   xmlns="http://www.w3.org/2000/svg"
   xmlns:svg="http://www.w3.org/2000/svg">
  <sodipodi:namedview
     id="namedview1"
     pagecolor="#ffffff"
     bordercolor="#000000"
     borderopacity="0.25"
     inkscape:showpageshadow="2"
     inkscape:pageopacity="0.0"
     inkscape:pagecheckerboard="0"
     inkscape:deskcolor="#2d2d2d"
     inkscape:document-units="mm"
     showguides="true"
     inkscape:zoom="1.0887558"
     inkscape:cx="472.09852"
     inkscape:cy="532.25893"
     inkscape:window-width="2560"
     inkscape:window-height="1377"
     inkscape:window-x="-8"
     inkscape:window-y="-8"
     inkscape:window-maximized="1"
     inkscape:current-layer="layer6"
     inkscape:lockguides="false">
    <sodipodi:guide
       position="50,430.00001"
       orientation="-1,0"
       id="guide1"
       inkscape:locked="false"
       inkscape:label=""
       inkscape:color="rgb(0,134,229)" />
    <sodipodi:guide
       position="0,380"
       orientation="0,1"
       id="guide23"
       inkscape:label=""
       inkscape:locked="false"
       inkscape:color="rgb(0,134,229)" />
    <sodipodi:guide
       position="67.000001,430.00003"
       orientation="-1,0"
       id="guide200"
       inkscape:label=""
       inkscape:locked="false"
       inkscape:color="rgb(0,134,229)" />
    <sodipodi:guide
       position="84,430.00003"
       orientation="-1,0"
       id="guide201"
       inkscape:label=""
       inkscape:locked="false"
       inkscape:color="rgb(0,134,229)" />
    <sodipodi:guide
       position="101,430.00003"
       orientation="-1,0"
       id="guide202"
       inkscape:label=""
       inkscape:locked="false"
       inkscape:color="rgb(0,134,229)" />
    <sodipodi:guide
       position="118,430.00003"
       orientation="-1,0"
       id="guide203"
       inkscape:label=""
       inkscape:locked="false"
       inkscape:color="rgb(0,134,229)" />
    <sodipodi:guide
       position="135,430.00001"
       orientation="-1,0"
       id="guide204"
       inkscape:label=""
       inkscape:locked="false"
       inkscape:color="rgb(0,134,229)" />
    <sodipodi:guide
       position="152,430.00003"
       orientation="-1,0"
       id="guide205"
       inkscape:label=""
       inkscape:locked="false"
       inkscape:color="rgb(0,134,229)" />
    <sodipodi:guide
       position="168.99999,430.00003"
       orientation="-1,0"
       id="guide206"
       inkscape:label=""
       inkscape:locked="false"
       inkscape:color="rgb(0,134,229)" />
    <sodipodi:guide
       position="185.99999,430.00003"
       orientation="-1,0"
       id="guide207"
       inkscape:label=""
       inkscape:locked="false"
       inkscape:color="rgb(0,134,229)" />
    <sodipodi:guide
       position="202.99999,430.00003"
       orientation="-1,0"
       id="guide208"
       inkscape:label=""
       inkscape:locked="false"
       inkscape:color="rgb(0,134,229)" />
    <sodipodi:guide
       position="219.99999,430.00003"
       orientation="-1,0"
       id="guide209"
       inkscape:label=""
       inkscape:locked="false"
       inkscape:color="rgb(0,134,229)" />
    <sodipodi:guide
       position="287,430.00003"
       orientation="-1,0"
       id="guide210"
       inkscape:label=""
       inkscape:locked="false"
       inkscape:color="rgb(0,134,229)" />
    <sodipodi:guide
       position="237,430.00003"
       orientation="-1,0"
       id="guide211"
       inkscape:label=""
       inkscape:locked="false"
       inkscape:color="rgb(0,134,229)" />
    <sodipodi:guide
       position="0,220.00001"
       orientation="0,1"
       id="guide212"
       inkscape:label=""
       inkscape:locked="false"
       inkscape:color="rgb(0,134,229)" />
    <sodipodi:guide
       position="0,203.00001"
       orientation="0,1"
       id="guide213"
       inkscape:label=""
       inkscape:locked="false"
       inkscape:color="rgb(0,134,229)" />
    <sodipodi:guide
       position="0,186.00001"
       orientation="0,1"
       id="guide214"
       inkscape:label=""
       inkscape:locked="false"
       inkscape:color="rgb(0,134,229)" />
    <sodipodi:guide
       position="0,169.00001"
       orientation="0,1"
       id="guide215"
       inkscape:label=""
       inkscape:locked="false"
       inkscape:color="rgb(0,134,229)" />
    <sodipodi:guide
       position="0,152.00001"
       orientation="0,1"
       id="guide216"
       inkscape:label=""
       inkscape:locked="false"
       inkscape:color="rgb(0,134,229)" />
    <sodipodi:guide
       position="0,135.00001"
       orientation="0,1"
       id="guide217"
       inkscape:label=""
       inkscape:locked="false"
       inkscape:color="rgb(0,134,229)" />
    <sodipodi:guide
       position="0,118"
       orientation="0,1"
       id="guide218"
       inkscape:label=""
       inkscape:locked="false"
       inkscape:color="rgb(0,134,229)" />
    <sodipodi:guide
       position="0,101"
       orientation="0,1"
       id="guide219"
       inkscape:label=""
       inkscape:locked="false"
       inkscape:color="rgb(0,134,229)" />
    <sodipodi:guide
       position="0,84.000003"
       orientation="0,1"
       id="guide220"
       inkscape:label=""
       inkscape:locked="false"
       inkscape:color="rgb(0,134,229)" />
    <sodipodi:guide
       position="0,67.000003"
       orientation="0,1"
       id="guide221"
       inkscape:label=""
       inkscape:locked="false"
       inkscape:color="rgb(0,134,229)" />
    <sodipodi:guide
       position="0,50.000002"
       orientation="0,1"
       id="guide222"
       inkscape:label=""
       inkscape:locked="false"
       inkscape:color="rgb(0,134,229)" />
    <sodipodi:guide
       position="287.00001,0"
       orientation="1,0"
       id="guide254"
       inkscape:locked="false" />
    <sodipodi:guide
       position="287.00001,0"
       orientation="0,-1"
       id="guide255"
       inkscape:locked="false" />
    <sodipodi:guide
       position="42.49983,244.5"
       orientation="0,1"
       id="guide257"
       inkscape:locked="false"
       inkscape:label=""
       inkscape:color="rgb(38,162,105)" />
    <sodipodi:guide
       position="42.499832,244.5"
       orientation="-1,0"
       id="guide258"
       inkscape:locked="false"
       inkscape:label=""
       inkscape:color="rgb(38,162,105)" />
    <sodipodi:guide
       position="244.50018,42.499992"
       orientation="0,1"
       id="guide259"
       inkscape:locked="false"
       inkscape:label=""
       inkscape:color="rgb(38,162,105)" />
    <sodipodi:guide
       position="244.50018,42.499992"
       orientation="-1,0"
       id="guide260"
       inkscape:locked="false"
       inkscape:label=""
       inkscape:color="rgb(38,162,105)" />
    <sodipodi:guide
       position="143.50001,287.00004"
       orientation="-1,0"
       id="guide261"
       inkscape:label=""
       inkscape:locked="false"
       inkscape:color="rgb(229,165,10)" />
    <sodipodi:guide
       position="287.00001,143.50001"
       orientation="0,1"
       id="guide262"
       inkscape:label=""
       inkscape:locked="false"
       inkscape:color="rgb(229,165,10)" />
    <sodipodi:guide
       position="0,262.00001"
       orientation="0,1"
       id="guide263"
       inkscape:label=""
       inkscape:locked="false"
       inkscape:color="rgb(0,134,229)" />
    <sodipodi:guide
       position="0,25.000001"
       orientation="0,1"
       id="guide264"
       inkscape:label=""
       inkscape:locked="false"
       inkscape:color="rgb(0,134,229)" />
    <sodipodi:guide
       position="160.50001,287.00004"
       orientation="-1,0"
       id="guide265"
       inkscape:label=""
       inkscape:locked="false"
       inkscape:color="rgb(198,70,0)" />
    <sodipodi:guide
       position="177.50001,287.00004"
       orientation="-1,0"
       id="guide266"
       inkscape:label=""
       inkscape:locked="false"
       inkscape:color="rgb(198,70,0)" />
    <sodipodi:guide
       position="126.50001,287.00004"
       orientation="-1,0"
       id="guide267"
       inkscape:label=""
       inkscape:locked="false"
       inkscape:color="rgb(198,70,0)" />
    <sodipodi:guide
       position="109.5,287.00004"
       orientation="-1,0"
       id="guide268"
       inkscape:label=""
       inkscape:locked="false"
       inkscape:color="rgb(198,70,0)" />
    <sodipodi:guide
       position="177.50001,25.000001"
       orientation="-0.30901699,0.95105652"
       id="guide283"
       inkscape:label=""
       inkscape:locked="false"
       inkscape:color="rgb(0,134,229)" />
    <sodipodi:guide
       position="177.50001,25.000001"
       orientation="0.80901699,0.58778525"
       id="guide286"
       inkscape:label=""
       inkscape:locked="false"
       inkscape:color="rgb(0,134,229)" />
    <sodipodi:guide
       position="177.50001,25.000001"
       orientation="0.80901699,-0.58778525"
       id="guide287"
       inkscape:label=""
       inkscape:locked="false"
       inkscape:color="rgb(0,134,229)" />
    <sodipodi:guide
       position="177.50001,25.000001"
       orientation="-0.30901699,-0.95105652"
       id="guide289"
       inkscape:label=""
       inkscape:locked="false"
       inkscape:color="rgb(0,134,229)" />
    <sodipodi:guide
       position="42.49983,265.75001"
       orientation="0,1"
       id="guide293"
       inkscape:label=""
       inkscape:locked="false"
       inkscape:color="rgb(99,69,44)" />
    <sodipodi:guide
       position="21.250001,265.75001"
       orientation="-1,0"
       id="guide294"
       inkscape:locked="false"
       inkscape:label=""
       inkscape:color="rgb(99,69,44)" />
    <sodipodi:guide
       position="265.75001,0"
       orientation="-1,0"
       id="guide295"
       inkscape:label=""
       inkscape:locked="false"
       inkscape:color="rgb(99,69,44)" />
    <sodipodi:guide
       position="287.00001,21.250001"
       orientation="0,1"
       id="guide296"
       inkscape:label=""
       inkscape:locked="false"
       inkscape:color="rgb(99,69,44)" />
  </sodipodi:namedview>
  <defs
     id="defs1" />
  <g
     inkscape:groupmode="layer"
     id="layer5"
     inkscape:label="temp" />
  <g
     inkscape:groupmode="layer"
     id="layer6"
     inkscape:label="CUTOUTS">
    <rect
       style="fill:#000000;stroke:none;stroke-width:0.264583;stroke-linecap:round;stroke-dasharray:none"
       id="rect293"
       width="287"
       height="287"
       x="0"
       y="0" />
    <circle
       style="fill:#808080;stroke:none;stroke-width:0.132291;stroke-linecap:round;stroke-dasharray:none"
       id="path268"
       cx="109.49999"
       cy="262"
       r="1"
       inkscape:label="1" />
    <g
       id="g293"
       inkscape:label="2"
       style="fill:#808080">
      <circle
         style="fill:#808080;stroke:none;stroke-width:0.132291;stroke-linecap:round;stroke-dasharray:none"
         id="path268-8"
         cx="124.00001"
         cy="262"
         r="1" />
      <circle
         style="fill:#808080;stroke:none;stroke-width:0.132291;stroke-linecap:round;stroke-dasharray:none"
         id="path268-53"
         cx="129"
         cy="262"
         r="1" />
    </g>
    <g
       id="g292"
       inkscape:label="3"
       style="fill:#808080">
      <circle
         style="fill:#808080;stroke:none;stroke-width:0.132291;stroke-linecap:round;stroke-dasharray:none"
         id="path268-53-6"
         cx="-259.49951"
         cy="143.50087"
         r="1"
         transform="rotate(-89.999807)"
         inkscape:transform-center-x="8.5209679e-06"
         inkscape:transform-center-y="-2.5000049" />
      <circle
         style="fill:#808080;stroke:none;stroke-width:0.132291;stroke-linecap:round;stroke-dasharray:none"
         id="circle277"
         cx="257.77518"
         cy="155.14778"
         r="1"
         transform="rotate(30.000193)"
         inkscape:transform-center-x="-2.1650702"
         inkscape:transform-center-y="1.2499992" />
      <circle
         style="fill:#808080;stroke:none;stroke-width:0.132291;stroke-linecap:round;stroke-dasharray:none"
         id="circle278"
         cx="9.22435"
         cy="-298.64868"
         r="1"
         transform="rotate(150.00019)"
         inkscape:transform-center-x="2.1650577"
         inkscape:transform-center-y="1.2499888" />
    </g>
    <g
       id="g291"
       inkscape:label="4"
       style="fill:#808080">
      <circle
         style="fill:#808080;stroke:none;stroke-width:0.132291;stroke-linecap:round;stroke-dasharray:none"
         id="path268-53-6-5"
         cx="-296.25284"
         cy="-71.77034"
         r="1"
         transform="rotate(-134.99981)"
         inkscape:transform-center-x="1.7677704"
         inkscape:transform-center-y="-1.767785" />
      <circle
         style="fill:#808080;stroke:none;stroke-width:0.132291;stroke-linecap:round;stroke-dasharray:none"
         id="circle279"
         cx="-69.270325"
         cy="298.75287"
         r="1"
         transform="rotate(-44.99981)"
         inkscape:transform-center-x="-1.7677959"
         inkscape:transform-center-y="-1.7677625" />
      <circle
         style="fill:#808080;stroke:none;stroke-width:0.132291;stroke-linecap:round;stroke-dasharray:none"
         id="circle280"
         cx="301.25287"
         cy="71.770355"
         r="1"
         transform="rotate(45.00019)"
         inkscape:transform-center-x="-1.7677626"
         inkscape:transform-center-y="1.767793" />
      <circle
         style="fill:#808080;stroke:none;stroke-width:0.132291;stroke-linecap:round;stroke-dasharray:none"
         id="circle281"
         cx="74.270355"
         cy="-298.75284"
         r="1"
         transform="rotate(135.00019)"
         inkscape:transform-center-x="1.7677929"
         inkscape:transform-center-y="1.7677597" />
    </g>
    <g
       id="g290"
       inkscape:label="5"
       style="fill:#808080">
      <circle
         style="fill:#808080;stroke:none;stroke-width:0.132291;stroke-linecap:round;stroke-dasharray:none"
         id="path268-53-6-1"
         cx="-259.49939"
         cy="177.50087"
         r="1"
         transform="rotate(-89.999807)"
         inkscape:transform-center-x="8.5209679e-06"
         inkscape:transform-center-y="-2.5000049" />
      <circle
         style="fill:#808080;stroke:none;stroke-width:0.132291;stroke-linecap:round;stroke-dasharray:none"
         id="circle287"
         cx="90.35215"
         cy="304.0267"
         r="1"
         transform="rotate(-17.999612)"
         inkscape:transform-center-x="-2.3776458"
         inkscape:transform-center-y="-0.77254726" />
      <circle
         style="fill:#808080;stroke:none;stroke-width:0.132291;stroke-linecap:round;stroke-dasharray:none"
         id="circle288"
         cx="318.7944"
         cy="10.396877"
         r="1"
         transform="rotate(54.000419)"
         inkscape:transform-center-x="-1.4694633"
         inkscape:transform-center-y="2.0225373" />
      <circle
         style="fill:#808080;stroke:none;stroke-width:0.132291;stroke-linecap:round;stroke-dasharray:none"
         id="circle289"
         cx="110.12901"
         cy="-297.60083"
         r="1"
         transform="rotate(126.0003)"
         inkscape:transform-center-x="1.4694672"
         inkscape:transform-center-y="2.0225514" />
      <circle
         style="fill:#808080;stroke:none;stroke-width:0.132291;stroke-linecap:round;stroke-dasharray:none"
         id="circle290"
         cx="-247.27539"
         cy="-194.32578"
         r="1"
         transform="rotate(-161.99988)"
         inkscape:transform-center-x="2.3776466"
         inkscape:transform-center-y="-0.77253292" />
    </g>
    <circle
       style="fill:#808080;stroke:none;stroke-width:0.130769;stroke-linecap:round;stroke-dasharray:none"
       id="path293"
       cx="143.5"
       cy="25"
       r="2.55"
       inkscape:label="LDR" />
    <g
       id="g298"
       inkscape:label="bolts">
      <circle
         style="fill:#808080;stroke:none;stroke-width:0.179087;stroke-linecap:round;stroke-dasharray:none"
         id="path296"
         cx="21.25"
         cy="21.25"
         r="2.5"
         inkscape:label="botl" />
      <circle
         style="fill:#808080;stroke:none;stroke-width:0.179087;stroke-linecap:round;stroke-dasharray:none"
         id="circle296"
         cx="265.75"
         cy="21.25"
         r="2.5"
         inkscape:label="bolt" />
      <circle
         style="fill:#808080;stroke:none;stroke-width:0.179087;stroke-linecap:round;stroke-dasharray:none"
         id="circle297"
         cx="265.75"
         cy="265.75"
         r="2.5"
         inkscape:label="bolt" />
      <circle
         style="fill:#808080;stroke:none;stroke-width:0.179087;stroke-linecap:round;stroke-dasharray:none"
         id="circle298"
         cx="21.25"
         cy="265.75"
         r="2.5"
         inkscape:label="bolt" />
    </g>
  </g>
  <g
     inkscape:groupmode="layer"
     id="layer2"
     inkscape:label="DISPLAY"
     style="display:inline"
     sodipodi:insensitive="true">
    <g
       id="g227"
       inkscape:label="five"
       style="fill:#808080">
      <path
         id="path83"
         style="font-size:25px;font-family:Stenciletta;-inkscape-font-specification:'Stenciletta, Normal';fill:#808080;stroke:none;stroke-width:0.311656;stroke-linecap:round;stroke-dasharray:none"
         d="m 216.24999,42.500002 v 15 h 4.04008 l -1.07453,-2.149059 h -0.81649 v -4.276412 h 1.89102 l -1.07453,-2.149058 h -0.81649 V 44.64906 h 1.89102 l -1.07453,-2.149058 z m 4.53445,0 1.07454,2.149058 h 1.89101 v -2.149058 z m 0,6.425471 1.07454,2.149058 h 1.89101 v -2.149058 z m 0,6.42547 1.07454,2.149059 h 1.89101 v -2.149059 z" />
      <path
         id="path79"
         style="font-size:25px;font-family:Stenciletta;-inkscape-font-specification:'Stenciletta, Normal';fill:#808080;stroke:none;stroke-width:0.311656;stroke-linecap:round;stroke-dasharray:none"
         d="m 198.17546,42.500002 3.22324,15 h 2.19212 l -3.22358,-15 z m 7.45694,0 -1.91273,8.918351 1.09623,5.114608 3.00862,-14.032959 z" />
      <path
         style="font-size:25px;font-family:Stenciletta;-inkscape-font-specification:'Stenciletta, Normal';fill:#808080;stroke:none;stroke-width:0.311654;stroke-linecap:round;stroke-dasharray:none"
         d="m 187.07449,42.500002 h -2.149 v 15 h 2.149 z"
         id="path77" />
    </g>
    <g
       id="g226"
       inkscape:label="half"
       style="fill:#808080">
      <path
         id="path76"
         style="font-size:25px;font-family:Stenciletta;-inkscape-font-specification:'Stenciletta, Normal';fill:#808080;stroke:none;stroke-width:0.311656;stroke-linecap:round;stroke-dasharray:none"
         d="m 165.24999,42.500002 v 15 h 2.14906 v -6.425471 h 1.89101 l -1.07452,-2.149058 h -0.81649 V 44.64906 h 1.89101 l -1.07452,-2.149058 z m 4.53445,0 1.07454,2.149058 h 1.89101 v -2.149058 z m 0,6.425471 1.07454,2.149058 h 1.89101 v -2.149058 z" />
      <path
         id="path73"
         style="font-size:25px;font-family:Stenciletta;-inkscape-font-specification:'Stenciletta, Normal';fill:#808080;stroke:none;stroke-width:0.311656;stroke-linecap:round;stroke-dasharray:none"
         d="m 148.24999,42.500002 v 15 h 4.04008 l -1.07453,-2.149059 h -0.81649 V 42.500002 Z m 4.53445,12.850941 1.07454,2.149059 H 155.75 v -2.149059 z" />
      <path
         id="path71"
         style="font-size:25px;font-family:Stenciletta;-inkscape-font-specification:'Stenciletta, Normal';fill:#808080;stroke:none;stroke-width:0.311656;stroke-linecap:round;stroke-dasharray:none"
         d="m 134.40916,42.500002 3.22325,15 h 2.19211 l -3.22358,-15 z m -1.22509,0.967041 -3.00861,14.032959 h 2.19212 l 0.68764,-3.223588 h 2.44983 l -0.47267,-2.127354 h -1.52584 l 0.77342,-3.567409 z" />
      <path
         id="path69"
         style="font-size:25px;font-family:Stenciletta;-inkscape-font-specification:'Stenciletta, Normal';fill:#808080;stroke:none;stroke-width:0.311656;stroke-linecap:round;stroke-dasharray:none"
         d="m 113.71273,42.500002 v 15 h 2.14906 v -6.425471 h 1.89101 l -1.07452,-2.149058 h -0.81649 v -6.425471 z m 6.42546,0 v 6.425471 h -1.89101 l 1.07452,2.149058 h 0.81649 v 6.425471 h 2.14907 v -15 z" />
    </g>
    <g
       id="g225"
       inkscape:label="ten"
       style="fill:#808080">
      <path
         id="path67"
         style="font-size:25px;font-family:Stenciletta;-inkscape-font-specification:'Stenciletta, Normal';fill:#808080;stroke:none;stroke-width:0.311656;stroke-linecap:round;stroke-dasharray:none"
         d="m 96.71274,42.500002 6.25356,15 h 2.32096 l -6.25355,-15 z m 6.42548,0 v 6.189136 l 2.14904,5.157671 V 42.500002 Z m -6.42548,3.653192 v 11.346808 h 2.14906 v -6.189137 z" />
      <path
         id="path64"
         style="font-size:25px;font-family:Stenciletta;-inkscape-font-specification:'Stenciletta, Normal';fill:#808080;stroke:none;stroke-width:0.311656;stroke-linecap:round;stroke-dasharray:none"
         d="m 80.249999,42.500002 v 15 h 4.040088 l -1.07453,-2.149059 h -0.816491 v -4.276412 h 1.891021 l -1.07453,-2.149058 H 82.399066 V 44.64906 h 1.891021 l -1.07453,-2.149058 z m 4.53445,0 1.074191,2.149058 h 1.891361 v -2.149058 z m 0,6.425471 1.074191,2.149058 h 1.891361 v -2.149058 z m 0,6.42547 1.074191,2.149059 h 1.891361 v -2.149059 z" />
      <path
         id="path60"
         style="font-size:25px;font-family:Stenciletta;-inkscape-font-specification:'Stenciletta, Normal';fill:#808080;stroke:none;stroke-width:0.311656;stroke-linecap:round;stroke-dasharray:none"
         d="m 62.712735,42.500002 v 2.149058 h 3.223243 v 12.850942 h 2.127699 V 44.64906 l -1.074529,-2.149058 z m 5.866674,0 1.074529,2.149058 h 1.633326 v -2.149058 z" />
    </g>
    <g
       id="g231"
       inkscape:label="yes"
       style="fill:#808080">
      <path
         id="path142"
         style="font-size:25px;font-family:Stenciletta;-inkscape-font-specification:'Stenciletta, Normal';fill:#808080;stroke:none;stroke-width:0.311654;stroke-linecap:round;stroke-dasharray:none"
         d="m 237.24718,76.510703 1.67604,3.331063 c 0.15044,0.279367 0.21497,0.601493 0.21497,0.945334 h 2.14905 c 0,-2.277941 -1.78361,-4.147457 -4.04006,-4.276397 z m -1.48277,0.17191 c -1.76217,0.537245 -3.05167,2.170386 -3.05167,4.104487 0,2.277933 1.78363,4.147799 4.04007,4.27674 l -1.67604,-3.3097 c -0.15043,-0.279367 -0.21497,-0.623201 -0.21497,-0.96704 0,-1.095994 0.81651,-1.998407 1.89101,-2.127347 z m 1.48277,6.274899 1.67604,3.309701 c 0.15044,0.279366 0.21497,0.6232 0.21497,0.96704 0,1.095994 -0.81651,1.998407 -1.89101,2.127346 l 0.98839,1.977141 c 1.76218,-0.537246 3.05167,-2.170393 3.05167,-4.104487 0,-2.277933 -1.78362,-4.1478 -4.04006,-4.276741 z m -4.53444,4.276741 c 0,2.277933 1.78363,4.126094 4.04007,4.255034 l -1.67604,-3.309701 c -0.15043,-0.279366 -0.21497,-0.601493 -0.21497,-0.945333 z" />
      <path
         id="path138"
         style="font-size:25px;font-family:Stenciletta;-inkscape-font-specification:'Stenciletta, Normal';fill:#808080;stroke:none;stroke-width:0.311654;stroke-linecap:round;stroke-dasharray:none"
         d="m 216.25001,76.500023 v 14.999943 h 4.04006 l -1.07452,-2.149047 h -0.81649 V 85.07452 h 1.89101 l -1.07452,-2.149047 h -0.81649 v -4.2764 h 1.89101 l -1.07452,-2.14905 z m 4.53444,0 1.07453,2.14905 h 1.891 v -2.14905 z m 0,6.42545 1.07453,2.149047 h 1.891 v -2.149047 z m 0,6.425446 1.07453,2.149047 h 1.891 v -2.149047 z" />
      <path
         id="path134"
         style="font-size:25px;font-family:Stenciletta;-inkscape-font-specification:'Stenciletta, Normal';fill:#808080;stroke:none;stroke-width:0.311654;stroke-linecap:round;stroke-dasharray:none"
         d="m 198.17548,76.500023 3.76067,8.574497 v 6.425446 h 2.12768 v -6.876753 l -3.54603,-8.12319 z m 7.3067,0 -1.71909,3.911216 1.18166,2.68614 2.87975,-6.597356 z" />
    </g>
    <g
       id="g230"
       inkscape:label="midnight"
       style="fill:#808080">
      <path
         id="path132"
         style="font-size:25px;font-family:Stenciletta;-inkscape-font-specification:'Stenciletta, Normal';fill:#808080;stroke:none;stroke-width:0.311654;stroke-linecap:round;stroke-dasharray:none"
         d="m 181.71275,76.500023 v 2.14905 h 3.22357 v 12.850893 h 2.12735 V 78.649073 l -1.07453,-2.14905 z m 5.86665,0 1.07452,2.14905 h 1.63332 v -2.14905 z" />
      <path
         id="path130"
         style="font-size:25px;font-family:Stenciletta;-inkscape-font-specification:'Stenciletta, Normal';fill:#808080;stroke:none;stroke-width:0.311654;stroke-linecap:round;stroke-dasharray:none"
         d="m 164.71275,76.500023 v 14.999943 h 2.14903 V 85.07452 h 1.89102 l -1.07453,-2.149047 h -0.81649 v -6.42545 z m 6.42544,0 v 6.42545 h -1.89102 l 1.07453,2.149047 h 0.81649 v 6.425446 h 2.14905 V 76.500023 Z" />
      <path
         id="path128"
         style="font-size:25px;font-family:Stenciletta;-inkscape-font-specification:'Stenciletta, Normal';fill:#808080;stroke:none;stroke-width:0.311654;stroke-linecap:round;stroke-dasharray:none"
         d="m 152.24719,76.510703 1.67604,3.331063 c 0.15043,0.279367 0.21496,0.601493 0.21496,0.945334 h 2.14905 c 0,-2.277941 -1.78361,-4.147457 -4.04005,-4.276397 z m -1.48278,0.17191 c -1.76217,0.537245 -3.05166,2.170386 -3.05166,4.104487 v 6.447153 c 0,2.277933 1.76225,4.126094 4.0187,4.255034 l -1.65468,-3.309701 C 149.92634,87.90022 149.8618,87.578093 149.8618,87.234253 V 80.7871 c 0,-1.095994 0.81651,-1.998407 1.89101,-2.127347 z m 1.22473,6.25354 1.07453,2.149047 h 1.07452 v 2.149053 c 0,1.095994 -0.81651,1.998407 -1.891,2.127346 l 0.9884,1.977141 c 1.76217,-0.537246 3.05165,-2.170393 3.05165,-4.104487 v -4.2981 z" />
      <path
         id="path125"
         style="font-size:25px;font-family:Stenciletta;-inkscape-font-specification:'Stenciletta, Normal';fill:#808080;stroke:none;stroke-width:0.311654;stroke-linecap:round;stroke-dasharray:none"
         d="m 133.92547,76.500023 v 14.999943 h 2.14904 V 76.500023 Z" />
      <path
         id="path124"
         style="font-size:25px;font-family:Stenciletta;-inkscape-font-specification:'Stenciletta, Normal';fill:#808080;stroke:none;stroke-width:0.311654;stroke-linecap:round;stroke-dasharray:none"
         d="m 113.71274,76.500023 6.25389,14.999943 h 2.32062 l -6.25354,-14.999943 z m 6.4258,0 v 6.189117 l 2.14871,5.157646 V 76.500023 Z m -6.4258,3.653176 v 11.346767 h 2.14905 v -6.189113 z" />
      <path
         id="path121"
         style="font-size:25px;font-family:Stenciletta;-inkscape-font-specification:'Stenciletta, Normal';fill:#808080;stroke:none;stroke-width:0.311654;stroke-linecap:round;stroke-dasharray:none"
         d="m 96.712755,76.500023 v 14.999943 h 4.040065 l -1.074535,-2.149047 h -0.81648 V 78.649073 h 1.891015 l -1.074535,-2.14905 z m 4.534425,0 1.65469,3.331063 c 0.15043,0.279367 0.23633,0.601493 0.23633,0.945334 v 6.447153 c 0,1.095994 -0.81651,1.998407 -1.89102,2.127346 l 0.9884,1.977141 c 1.76217,-0.537246 3.05166,-2.170393 3.05166,-4.104487 V 80.77642 c 0,-2.277941 -1.78361,-4.147457 -4.04006,-4.276397 z" />
      <path
         style="font-size:25px;font-family:Stenciletta;-inkscape-font-specification:'Stenciletta, Normal';fill:#808080;stroke:none;stroke-width:0.311654;stroke-linecap:round;stroke-dasharray:none"
         d="m 85.074497,76.499995 h -2.148994 v 15 h 2.148994 z"
         id="path119" />
      <path
         id="path118"
         style="font-size:25px;font-family:Stenciletta;-inkscape-font-specification:'Stenciletta, Normal';fill:#808080;stroke:none;stroke-width:0.311654;stroke-linecap:round;stroke-dasharray:none"
         d="m 61.36968,76.500023 4.470012,10.72355 h 2.320616 l 0.902615,-2.213474 V 79.637473 L 67,84.923973 63.690642,76.500023 Z m 9.11159,0 v 14.999943 h 2.14905 V 76.500023 Z m -9.11159,3.653176 v 11.346767 h 2.149052 v -6.210473 z" />
    </g>
    <g
       id="g234"
       inkscape:label="ten"
       style="fill:#808080">
      <path
         id="path172"
         style="font-size:25px;font-family:Stenciletta;-inkscape-font-specification:'Stenciletta, Normal';fill:#808080;stroke:none;stroke-width:0.311648;stroke-linecap:round;stroke-dasharray:none"
         d="m 232.71283,93.499995 6.25342,14.999995 h 2.32091 l -6.25341,-14.999995 z m 6.42533,0 v 6.189 l 2.149,5.157535 V 93.499995 Z m -6.42533,3.653454 v 11.346541 h 2.14902 v -6.189 z" />
      <path
         id="path169"
         style="font-size:25px;font-family:Stenciletta;-inkscape-font-specification:'Stenciletta, Normal';fill:#808080;stroke:none;stroke-width:0.311648;stroke-linecap:round;stroke-dasharray:none"
         d="m 216.25008,93.499995 v 14.999995 h 4.03999 l -1.07451,-2.14902 h -0.81647 v -4.27665 h 1.89098 l -1.07451,-2.148655 h -0.81647 v -4.27666 h 1.89098 l -1.07451,-2.14901 z m 4.53436,0 1.07415,2.14901 h 1.89131 v -2.14901 z m 0,6.42567 1.07415,2.148655 h 1.89131 v -2.148655 z m 0,6.425305 1.07415,2.14902 h 1.89131 v -2.14902 z" />
      <path
         id="path165"
         style="font-size:25px;font-family:Stenciletta;-inkscape-font-specification:'Stenciletta, Normal';fill:#808080;stroke:none;stroke-width:0.311648;stroke-linecap:round;stroke-dasharray:none"
         d="m 198.71283,93.499995 v 2.14901 h 3.22316 v 12.850985 h 2.12765 V 95.649005 l -1.07451,-2.14901 z m 5.86654,0 1.0745,2.14901 h 1.63328 v -2.14901 z" />
    </g>
    <g
       id="g233"
       inkscape:label="midday"
       style="fill:#808080">
      <path
         id="path163"
         style="font-size:25px;font-family:Stenciletta;-inkscape-font-specification:'Stenciletta, Normal';fill:#808080;stroke:none;stroke-width:0.311648;stroke-linecap:round;stroke-dasharray:none"
         d="m 181.17557,93.499995 3.76093,8.574325 v 6.42567 h 2.12731 v -6.87697 l -3.54562,-8.123025 z m 7.30656,0 -1.71908,3.911142 1.18199,2.686433 2.87937,-6.597575 z" />
      <path
         id="path161"
         style="font-size:25px;font-family:Stenciletta;-inkscape-font-specification:'Stenciletta, Normal';fill:#808080;stroke:none;stroke-width:0.311648;stroke-linecap:round;stroke-dasharray:none"
         d="m 168.40882,93.499995 3.22351,14.999995 h 2.19208 l -3.22352,-14.999995 z m -1.22471,0.96702 -3.00854,14.032975 h 2.19174 l 0.68762,-3.22352 h 2.44976 l -0.47266,-2.12765 h -1.5258 l 0.77375,-3.566965 z" />
      <path
         id="path159"
         style="font-size:25px;font-family:Stenciletta;-inkscape-font-specification:'Stenciletta, Normal';fill:#808080;stroke:none;stroke-width:0.311648;stroke-linecap:round;stroke-dasharray:none"
         d="m 147.71283,93.499995 v 14.999995 h 4.04033 l -1.07451,-2.14902 h -0.8168 V 95.649005 h 1.89131 l -1.07451,-2.14901 z m 4.53434,0 1.65465,3.331 c 0.15043,0.279361 0.23667,0.601828 0.23667,0.945661 v 6.446674 c 0,1.09597 -0.81683,1.99871 -1.89132,2.12764 l 0.98873,1.97711 c 1.76214,-0.53724 3.05126,-2.17069 3.05126,-4.10475 v -6.446674 c 0,-2.277895 -1.78358,-4.147724 -4.03999,-4.276661 z" />
      <path
         id="path157"
         style="font-size:25px;font-family:Stenciletta;-inkscape-font-specification:'Stenciletta, Normal';fill:#808080;stroke:none;stroke-width:0.311648;stroke-linecap:round;stroke-dasharray:none"
         d="m 130.71283,93.499995 v 14.999995 h 4.03998 l -1.0745,-2.14902 h -0.81647 V 95.649005 h 1.89097 l -1.0745,-2.14901 z m 4.53435,0 1.65465,3.331 c 0.15042,0.279361 0.23633,0.601828 0.23633,0.945661 v 6.446674 c 0,1.09597 -0.81651,1.99871 -1.89098,2.12764 l 0.98837,1.97711 c 1.76214,-0.53724 3.0516,-2.17069 3.0516,-4.10475 v -6.446674 c 0,-2.277895 -1.78358,-4.147724 -4.03997,-4.276661 z" />
      <path
         style="font-size:25px;font-family:Stenciletta;-inkscape-font-specification:'Stenciletta, Normal';fill:#808080;stroke:none;stroke-width:0.311648;stroke-linecap:round;stroke-dasharray:none"
         d="m 119.07447,93.500141 h -2.14894 v 14.999709 h 2.14894 z"
         id="path155" />
      <path
         id="path154"
         style="font-size:25px;font-family:Stenciletta;-inkscape-font-specification:'Stenciletta, Normal';fill:#808080;stroke:none;stroke-width:0.311648;stroke-linecap:round;stroke-dasharray:none"
         d="m 95.36979,93.499995 4.46958,10.723335 h 2.32092 l 0.90259,-2.21343 V 96.637726 L 101,101.92412 97.69071,93.499995 Z m 9.1114,0 v 14.999995 h 2.14902 V 93.499995 Z m -9.1114,3.653454 v 11.346541 h 2.14901 v -6.2107 z" />
    </g>
    <g
       id="g232"
       inkscape:label="to"
       style="fill:#808080">
      <path
         id="path151"
         style="font-size:25px;font-family:Stenciletta;-inkscape-font-specification:'Stenciletta, Normal';fill:#808080;stroke:none;stroke-width:0.311648;stroke-linecap:round;stroke-dasharray:none"
         d="m 84.247185,93.51085 1.676007,3.331 c 0.150424,0.279361 0.214969,0.601828 0.214969,0.945661 v 6.446679 c 0,1.09597 -0.816504,1.99871 -1.890976,2.12764 l 0.988374,1.97711 c 1.762145,-0.53724 3.051606,-2.17069 3.051606,-4.10475 v -6.446679 c 0,-2.277895 -1.783585,-4.147724 -4.03998,-4.276661 z m -1.482744,0.171909 c -1.762138,0.537236 -3.051606,2.170691 -3.051606,4.104752 v 6.446679 c 0,2.27789 1.762225,4.12601 4.018627,4.25495 l -1.654647,-3.30929 c -0.150424,-0.27936 -0.214969,-0.60182 -0.214969,-0.94566 v -6.446679 c 0,-1.095972 0.816497,-1.998713 1.890976,-2.127651 z" />
      <path
         id="path149"
         style="font-size:25px;font-family:Stenciletta;-inkscape-font-specification:'Stenciletta, Normal';fill:#808080;stroke:none;stroke-width:0.311648;stroke-linecap:round;stroke-dasharray:none"
         d="m 62.712835,93.499995 v 2.14901 h 3.223513 v 12.850985 h 2.127303 V 95.649005 l -1.074503,-2.14901 z m 5.866537,0 1.074505,2.14901 h 1.633288 v -2.14901 z" />
    </g>
    <g
       id="g236"
       inkscape:label="eleven"
       style="fill:#808080">
      <path
         id="path202"
         style="font-size:25px;font-family:Stenciletta;-inkscape-font-specification:'Stenciletta, Normal';fill:#808080;stroke:none;stroke-width:0.311212;stroke-linecap:round;stroke-dasharray:none"
         d="m 215.71882,110.51066 6.24466,14.97866 h 2.31768 l -6.24467,-14.97866 z m 6.41633,0 v 6.18034 l 2.14601,5.15033 v -11.33067 z m -6.41633,3.648 v 11.33066 h 2.146 V 119.309 Z" />
      <path
         id="path199"
         style="font-size:25px;font-family:Stenciletta;-inkscape-font-specification:'Stenciletta, Normal';fill:#808080;stroke:none;stroke-width:0.311212;stroke-linecap:round;stroke-dasharray:none"
         d="m 199.25532,110.51066 v 14.97866 h 4.03434 l -1.07301,-2.146 h -0.81533 V 119.073 h 1.88834 l -1.07301,-2.146 h -0.81533 v -4.27033 h 1.88834 l -1.07301,-2.14601 z m 4.528,0 1.07301,2.14601 h 1.88833 v -2.14601 z m 0,6.41634 1.07301,2.146 h 1.88833 v -2.146 z m 0,6.41632 1.07301,2.146 h 1.88833 v -2.146 z" />
      <path
         id="path195"
         style="font-size:25px;font-family:Stenciletta;-inkscape-font-specification:'Stenciletta, Normal';fill:#808080;stroke:none;stroke-width:0.311212;stroke-linecap:round;stroke-dasharray:none"
         d="m 181.18232,110.51066 3.21901,14.97866 h 2.18866 l -3.21901,-14.97866 z m 7.44634,0 -1.91002,8.90567 1.09469,5.10733 3.00433,-14.013 z" />
      <path
         id="path193"
         style="font-size:25px;font-family:Stenciletta;-inkscape-font-specification:'Stenciletta, Normal';fill:#808080;stroke:none;stroke-width:0.311212;stroke-linecap:round;stroke-dasharray:none"
         d="m 165.25532,110.51066 v 14.97866 h 4.03433 l -1.073,-2.146 h -0.81532 V 119.073 h 1.88832 l -1.073,-2.146 h -0.81532 v -4.27033 h 1.88832 l -1.073,-2.14601 z m 4.52801,0 1.073,2.14601 h 1.88833 v -2.14601 z m 0,6.41634 1.073,2.146 h 1.88833 v -2.146 z m 0,6.41632 1.073,2.146 h 1.88833 v -2.146 z" />
      <path
         id="path189"
         style="font-size:25px;font-family:Stenciletta;-inkscape-font-specification:'Stenciletta, Normal';fill:#808080;stroke:none;stroke-width:0.311212;stroke-linecap:round;stroke-dasharray:none"
         d="m 148.25532,110.51066 v 14.97866 h 4.03433 l -1.073,-2.146 h -0.81533 v -12.83266 z m 4.528,12.83266 1.073,2.146 h 1.88834 v -2.146 z" />
    </g>
    <g
       id="g235"
       inkscape:label="three"
       style="fill:#808080">
      <path
         id="path187"
         style="font-size:25px;font-family:Stenciletta;-inkscape-font-specification:'Stenciletta, Normal';fill:#808080;stroke:none;stroke-width:0.311212;stroke-linecap:round;stroke-dasharray:none"
         d="m 131.25533,110.51066 v 14.97866 h 4.03432 l -1.073,-2.146 h -0.81533 V 119.073 h 1.88833 l -1.073,-2.146 h -0.81533 v -4.27033 h 1.88833 l -1.073,-2.14601 z m 4.528,0 1.07299,2.14601 h 1.88834 v -2.14601 z m 0,6.41634 1.07299,2.146 h 1.88834 v -2.146 z m 0,6.41632 1.07299,2.146 h 1.88834 v -2.146 z" />
      <path
         id="path183"
         style="font-size:25px;font-family:Stenciletta;-inkscape-font-specification:'Stenciletta, Normal';fill:#808080;stroke:none;stroke-width:0.311212;stroke-linecap:round;stroke-dasharray:none"
         d="m 114.25533,110.51066 v 14.97866 h 4.03432 l -1.07299,-2.146 h -0.81533 V 119.073 h 1.88832 l -1.07299,-2.146 h -0.81533 v -4.27033 h 1.88832 l -1.07299,-2.14601 z m 4.528,0 1.07301,2.14601 h 1.88832 v -2.14601 z m 0,6.41634 1.07301,2.146 h 1.88832 v -2.146 z m 0,6.41632 1.07301,2.146 h 1.88832 v -2.146 z" />
      <path
         id="path179"
         style="font-size:25px;font-family:Stenciletta;-inkscape-font-specification:'Stenciletta, Normal';fill:#808080;stroke:none;stroke-width:0.311212;stroke-linecap:round;stroke-dasharray:none"
         d="m 96.718835,110.51066 v 14.97866 h 2.14566 V 119.073 h 0.81568 l 3.197325,6.41632 h 2.40366 l -4.292,-8.56232 h -2.124665 v -4.27033 h 1.888675 l -1.072995,-2.14601 z m 4.527665,0 1.674,3.32634 c 0.1502,0.27897 0.21466,0.60064 0.21466,0.944 0,0.68669 -0.30043,1.28772 -0.79399,1.674 l 0.96566,1.93134 c 1.18027,-0.75109 1.97433,-2.08173 1.97433,-3.60534 0,-2.27471 -1.78143,-4.14158 -4.03466,-4.27034 z" />
      <path
         id="path177"
         style="font-size:25px;font-family:Stenciletta;-inkscape-font-specification:'Stenciletta, Normal';fill:#808080;stroke:none;stroke-width:0.311212;stroke-linecap:round;stroke-dasharray:none"
         d="m 79.718832,110.51066 v 14.97866 h 2.146004 V 119.073 h 1.888331 l -1.073003,-2.146 h -0.815328 v -6.41634 z m 6.416338,0 v 6.41634 h -1.888331 l 1.072656,2.146 h 0.815675 v 6.41632 h 2.145997 v -14.97866 z" />
      <path
         id="path175"
         style="font-size:25px;font-family:Stenciletta;-inkscape-font-specification:'Stenciletta, Normal';fill:#808080;stroke:none;stroke-width:0.311212;stroke-linecap:round;stroke-dasharray:none"
         d="m 62.718833,110.51066 v 2.14601 h 3.21866 v 12.83265 h 2.124671 v -12.83265 l -1.072999,-2.14601 z m 5.858331,0 1.073,2.14601 h 1.631003 v -2.14601 z" />
    </g>
    <g
       id="g239"
       inkscape:label="nine"
       style="fill:#808080">
      <path
         id="path234"
         style="font-size:25px;font-family:Stenciletta;-inkscape-font-specification:'Stenciletta, Normal';fill:#808080;stroke:none;stroke-width:0.311652;stroke-linecap:round;stroke-dasharray:none"
         d="m 233.25003,127.50007 v 14.99984 h 4.04003 l -1.07452,-2.14903 h -0.81647 v -4.27636 h 1.89099 l -1.07452,-2.14904 h -0.81647 v -4.27671 h 1.89099 l -1.07452,-2.1487 z m 4.5344,0 1.07451,2.1487 h 1.89101 v -2.1487 z m 0,6.42541 1.07451,2.14904 h 1.89101 v -2.14904 z m 0,6.4254 1.07451,2.14903 h 1.89101 v -2.14903 z" />
      <path
         id="path230"
         style="font-size:25px;font-family:Stenciletta;-inkscape-font-specification:'Stenciletta, Normal';fill:#808080;stroke:none;stroke-width:0.311652;stroke-linecap:round;stroke-dasharray:none"
         d="m 215.71278,127.50007 6.25348,14.99984 h 2.32095 l -6.25349,-14.99984 z m 6.4254,0 v 6.18908 l 2.14903,5.15727 v -11.34635 z m -6.4254,3.65315 v 11.34669 h 2.14903 v -6.18906 z" />
      <path
         style="font-size:25px;font-family:Stenciletta;-inkscape-font-specification:'Stenciletta, Normal';fill:#808080;stroke:none;stroke-width:0.311652;stroke-linecap:round;stroke-dasharray:none"
         d="m 204.07448,127.50005 h -2.14898 v 14.99989 h 2.14898 z"
         id="path227" />
      <path
         id="path226"
         style="font-size:25px;font-family:Stenciletta;-inkscape-font-specification:'Stenciletta, Normal';fill:#808080;stroke:none;stroke-width:0.311652;stroke-linecap:round;stroke-dasharray:none"
         d="m 181.71278,127.50007 6.25349,14.99984 h 2.32093 l -6.25349,-14.99984 z m 6.42539,0 v 6.18908 l 2.14903,5.15727 v -11.34635 z m -6.42539,3.65315 v 11.34669 h 2.14903 v -6.18906 z" />
    </g>
    <g
       id="g238"
       inkscape:label="four"
       style="fill:#808080">
      <path
         id="path223"
         style="font-size:25px;font-family:Stenciletta;-inkscape-font-specification:'Stenciletta, Normal';fill:#808080;stroke:none;stroke-width:0.311652;stroke-linecap:round;stroke-dasharray:none"
         d="m 164.71277,127.50007 v 14.99984 h 2.14903 v -6.42539 h 0.81648 l 3.20219,6.42539 h 2.40674 l -4.29807,-8.57443 h -2.12734 v -4.27671 h 1.89101 l -1.07453,-2.1487 z m 4.5344,0 1.67637,3.3307 c 0.15043,0.27937 0.21462,0.60184 0.21462,0.94568 0,0.68766 -0.30086,1.2892 -0.79511,1.67602 l 0.96703,1.93406 c 1.18194,-0.75213 1.97713,-2.08431 1.97713,-3.61008 0,-2.27793 -1.78362,-4.14743 -4.04004,-4.27638 z" />
      <path
         id="path221"
         style="font-size:25px;font-family:Stenciletta;-inkscape-font-specification:'Stenciletta, Normal';fill:#808080;stroke:none;stroke-width:0.311652;stroke-linecap:round;stroke-dasharray:none"
         d="m 147.71277,127.51092 v 10.72314 c 0,2.27792 1.78394,4.12606 4.04038,4.255 l -1.67637,-3.30933 c -0.15043,-0.27937 -0.21498,-0.60184 -0.21498,-0.94567 v -10.72314 z m 6.42575,0 v 10.72314 c 0,1.09598 -0.81685,1.99873 -1.89135,2.12767 l 0.98874,1.97713 c 1.76216,-0.53725 3.0513,-2.17072 3.0513,-4.1048 v -10.72314 z" />
      <path
         id="path219"
         style="font-size:25px;font-family:Stenciletta;-inkscape-font-specification:'Stenciletta, Normal';fill:#808080;stroke:none;stroke-width:0.311652;stroke-linecap:round;stroke-dasharray:none"
         d="m 135.24718,127.51092 1.67603,3.3307 c 0.15042,0.27937 0.21498,0.60184 0.21498,0.94568 v 6.44676 c 0,1.09598 -0.81652,1.99873 -1.89101,2.12767 l 0.98839,1.97713 c 1.76216,-0.53725 3.05164,-2.17072 3.05164,-4.1048 v -6.44676 c 0,-2.27793 -1.7836,-4.14743 -4.04003,-4.27638 z m -1.48275,0.17192 c -1.76217,0.53724 -3.05165,2.17036 -3.05165,4.10446 v 6.44676 c 0,2.27792 1.76225,4.12606 4.01867,4.255 l -1.655,-3.30933 c -0.15043,-0.27937 -0.21463,-0.60184 -0.21463,-0.94567 v -6.44676 c 0,-1.09599 0.81651,-1.99875 1.89099,-2.12768 z" />
      <path
         id="path217"
         style="font-size:25px;font-family:Stenciletta;-inkscape-font-specification:'Stenciletta, Normal';fill:#808080;stroke:none;stroke-width:0.311652;stroke-linecap:round;stroke-dasharray:none"
         d="m 114.25004,127.50007 v 14.99984 h 2.14904 v -6.42539 h 1.89135 l -1.07453,-2.14904 h -0.81682 v -4.27671 h 1.89135 l -1.07453,-2.1487 z m 4.53441,0 1.07452,2.1487 h 1.89099 v -2.1487 z m 0,6.42541 1.07452,2.14904 h 1.89099 v -2.14904 z" />
    </g>
    <g
       id="g237"
       inkscape:label="six"
       style="fill:#808080">
      <path
         id="path214"
         style="font-size:25px;font-family:Stenciletta;-inkscape-font-specification:'Stenciletta, Normal';fill:#808080;stroke:none;stroke-width:0.311652;stroke-linecap:round;stroke-dasharray:none"
         d="m 96.175695,127.50007 7.263235,14.99984 h 2.38537 l -7.263235,-14.99984 z m 7.263235,0 -1.65466,3.41683 1.182,2.47115 2.85803,-5.88798 z m -4.405205,9.11153 -2.85803,5.88831 h 2.38537 l 1.654665,-3.43852 z" />
      <path
         style="font-size:25px;font-family:Stenciletta;-inkscape-font-specification:'Stenciletta, Normal';fill:#808080;stroke:none;stroke-width:0.311652;stroke-linecap:round;stroke-dasharray:none"
         d="m 85.074492,127.50005 h -2.148985 v 14.99989 h 2.148985 z"
         id="path211" />
      <path
         id="path210"
         style="font-size:25px;font-family:Stenciletta;-inkscape-font-specification:'Stenciletta, Normal';fill:#808080;stroke:none;stroke-width:0.311652;stroke-linecap:round;stroke-dasharray:none"
         d="m 67.247184,127.51092 1.676027,3.3307 c 0.150425,0.27937 0.214971,0.60184 0.214971,0.94568 h 2.149036 c 0,-2.27793 -1.783605,-4.14743 -4.040034,-4.27638 z m -1.482758,0.17192 c -1.762166,0.53724 -3.051644,2.17036 -3.051644,4.10446 0,2.2779 1.783607,4.14742 4.040034,4.27636 l -1.676027,-3.30933 c -0.150425,-0.27937 -0.214971,-0.62319 -0.214971,-0.96703 0,-1.09599 0.816507,-1.99875 1.890998,-2.12768 z m 1.482758,6.27485 1.676027,3.30933 c 0.150425,0.27936 0.214971,0.6232 0.214971,0.96704 0,1.09598 -0.816507,1.99873 -1.890998,2.12767 l 0.98839,1.97713 c 1.762166,-0.53725 3.051644,-2.17072 3.051644,-4.1048 0,-2.27792 -1.783605,-4.14743 -4.040034,-4.27637 z m -4.534402,4.27637 c 0,2.27792 1.783607,4.12606 4.040034,4.255 l -1.676027,-3.30933 c -0.150425,-0.27937 -0.214971,-0.60184 -0.214971,-0.94567 z" />
    </g>
    <g
       id="g241"
       inkscape:label="seven"
       style="fill:#808080">
      <path
         id="path269"
         style="font-size:25px;font-family:Stenciletta;-inkscape-font-specification:'Stenciletta, Normal';fill:#808080;stroke:none;stroke-width:0.311656;stroke-linecap:round;stroke-dasharray:none"
         d="m 232.71273,144.49999 6.25356,15 h 2.32097 l -6.25356,-15 z m 6.42548,0 v 6.18914 l 2.14905,5.15767 v -11.34681 z m -6.42548,3.65319 v 11.34681 h 2.14907 v -6.18914 z" />
      <path
         id="path266"
         style="font-size:25px;font-family:Stenciletta;-inkscape-font-specification:'Stenciletta, Normal';fill:#808080;stroke:none;stroke-width:0.311656;stroke-linecap:round;stroke-dasharray:none"
         d="m 216.24999,144.49999 v 15 h 4.04007 l -1.07452,-2.14906 h -0.81649 v -4.27641 h 1.89101 l -1.07452,-2.14905 h -0.81649 v -4.27642 h 1.89101 l -1.07452,-2.14906 z m 4.53445,0 1.07418,2.14906 h 1.89137 v -2.14906 z m 0,6.42548 1.07418,2.14905 h 1.89137 v -2.14905 z m 0,6.42546 1.07418,2.14906 h 1.89137 v -2.14906 z" />
      <path
         id="path262"
         style="font-size:25px;font-family:Stenciletta;-inkscape-font-specification:'Stenciletta, Normal';fill:#808080;stroke:none;stroke-width:0.311656;stroke-linecap:round;stroke-dasharray:none"
         d="m 198.17563,144.49999 3.22324,15 h 2.19212 l -3.22358,-15 z m 7.45693,0 -1.91271,8.91835 1.09589,5.11461 3.00861,-14.03296 z" />
      <path
         id="path260"
         style="font-size:25px;font-family:Stenciletta;-inkscape-font-specification:'Stenciletta, Normal';fill:#808080;stroke:none;stroke-width:0.311656;stroke-linecap:round;stroke-dasharray:none"
         d="m 182.24999,144.49999 v 15 h 4.04007 l -1.07452,-2.14906 h -0.81649 v -4.27641 h 1.89101 l -1.07452,-2.14905 h -0.81649 v -4.27642 h 1.89101 l -1.07452,-2.14906 z m 4.53445,0 1.07453,2.14906 h 1.89102 v -2.14906 z m 0,6.42548 1.07453,2.14905 h 1.89102 v -2.14905 z m 0,6.42546 1.07453,2.14906 h 1.89102 v -2.14906 z" />
      <path
         id="path256"
         style="font-size:25px;font-family:Stenciletta;-inkscape-font-specification:'Stenciletta, Normal';fill:#808080;stroke:none;stroke-width:0.311656;stroke-linecap:round;stroke-dasharray:none"
         d="m 169.24717,144.51067 1.67638,3.33108 c 0.15045,0.27936 0.21464,0.6015 0.21464,0.94534 h 2.14906 c 0,-2.27796 -1.78362,-4.14747 -4.04008,-4.27642 z m -1.48278,0.17192 c -1.76217,0.53724 -3.05166,2.17039 -3.05166,4.1045 0,2.27793 1.78361,4.14781 4.04007,4.27675 l -1.67605,-3.30971 c -0.15043,-0.27937 -0.21498,-0.62321 -0.21498,-0.96704 0,-1.09601 0.81652,-1.99842 1.89103,-2.12736 z m 1.48278,6.27525 1.67638,3.30937 c 0.15045,0.27938 0.21464,0.62321 0.21464,0.96705 0,1.096 -0.81652,1.99842 -1.89102,2.12735 l 0.98875,1.97716 c 1.76218,-0.53726 3.05133,-2.17041 3.05133,-4.10451 0,-2.27794 -1.78362,-4.14747 -4.04008,-4.27642 z m -4.53444,4.27642 c 0,2.27795 1.78361,4.12611 4.04007,4.25505 l -1.67605,-3.30936 c -0.15043,-0.27937 -0.21498,-0.60184 -0.21498,-0.94569 z" />
    </g>
    <g
       id="g240"
       inkscape:label="twelve"
       style="fill:#808080">
      <path
         id="path252"
         style="font-size:25px;font-family:Stenciletta;-inkscape-font-specification:'Stenciletta, Normal';fill:#808080;stroke:none;stroke-width:0.311656;stroke-linecap:round;stroke-dasharray:none"
         d="m 148.24999,144.49999 v 15 h 4.04008 l -1.07454,-2.14906 h -0.81649 v -4.27641 h 1.89103 l -1.07454,-2.14905 h -0.81649 v -4.27642 h 1.89103 l -1.07454,-2.14906 z m 4.53445,0 1.07453,2.14906 H 155.75 v -2.14906 z m 0,6.42548 1.07453,2.14905 H 155.75 v -2.14905 z m 0,6.42546 1.07453,2.14906 H 155.75 v -2.14906 z" />
      <path
         id="path248"
         style="font-size:25px;font-family:Stenciletta;-inkscape-font-specification:'Stenciletta, Normal';fill:#808080;stroke:none;stroke-width:0.311656;stroke-linecap:round;stroke-dasharray:none"
         d="m 130.17546,144.49999 3.2236,15 h 2.19177 l -3.22324,-15 z m 7.45695,0 -1.91238,8.91835 1.09588,5.11461 3.00861,-14.03296 z" />
      <path
         id="path246"
         style="font-size:25px;font-family:Stenciletta;-inkscape-font-specification:'Stenciletta, Normal';fill:#808080;stroke:none;stroke-width:0.311656;stroke-linecap:round;stroke-dasharray:none"
         d="m 114.25,144.49999 v 15 h 4.04007 l -1.07452,-2.14906 h -0.81683 v -12.85094 z m 4.5341,12.85094 1.07453,2.14906 H 121.75 v -2.14906 z" />
      <path
         id="path244"
         style="font-size:25px;font-family:Stenciletta;-inkscape-font-specification:'Stenciletta, Normal';fill:#808080;stroke:none;stroke-width:0.311656;stroke-linecap:round;stroke-dasharray:none"
         d="m 97.25,144.49999 v 15 h 4.04007 l -1.07418,-2.14906 h -0.81684 v -4.27641 h 1.89102 l -1.07418,-2.14905 h -0.81684 v -4.27642 h 1.89102 l -1.07418,-2.14906 z m 4.53445,0 1.07453,2.14906 H 104.75 v -2.14906 z m 0,6.42548 1.07453,2.14905 H 104.75 v -2.14905 z m 0,6.42546 1.07453,2.14906 H 104.75 v -2.14906 z" />
      <path
         id="path240"
         style="font-size:25px;font-family:Stenciletta;-inkscape-font-specification:'Stenciletta, Normal';fill:#808080;stroke:none;stroke-width:0.311656;stroke-linecap:round;stroke-dasharray:none"
         d="m 77.037092,144.49999 2.707854,15 h 2.170421 l -2.70751,-15 z m 11.755055,0 -1.246439,6.87678 1.310866,4.87827 2.106334,-11.75505 z m -5.888035,3.20188 -1.010105,3.73932 0.859558,4.7925 1.246437,-5.07189 2.041568,8.33819 h 2.213489 l -3.137466,-11.79812 z" />
      <path
         id="path237"
         style="font-size:25px;font-family:Stenciletta;-inkscape-font-specification:'Stenciletta, Normal';fill:#808080;stroke:none;stroke-width:0.311656;stroke-linecap:round;stroke-dasharray:none"
         d="m 62.712734,144.49999 v 2.14906 h 3.223592 v 12.85094 h 2.127348 v -12.85094 l -1.074523,-2.14906 z m 5.866675,0 1.074531,2.14906 h 1.633325 v -2.14906 z" />
    </g>
    <g
       id="g242"
       inkscape:label="horologium"
       style="fill:#808080">
      <path
         id="path295"
         style="font-size:25px;font-family:Stenciletta;-inkscape-font-specification:'Stenciletta, Normal';fill:#808080;stroke:none;stroke-width:0.311653;stroke-linecap:round;stroke-dasharray:none"
         d="m 231.3697,161.50008 4.46964,10.72316 h 2.32096 l 0.90261,-2.21347 v -5.37225 L 237,169.92398 l -3.3097,-8.4239 z m 9.11155,0 v 14.99987 h 2.14904 v -14.99987 z m -9.11155,3.65317 v 11.3467 h 2.1487 v -6.21078 z" />
      <path
         id="path292"
         style="font-size:25px;font-family:Stenciletta;-inkscape-font-specification:'Stenciletta, Normal';fill:#808080;stroke:none;stroke-width:0.311653;stroke-linecap:round;stroke-dasharray:none"
         d="m 215.71276,161.51093 v 10.72316 c 0,2.27791 1.78361,4.12607 4.04005,4.255 l -1.67603,-3.30933 c -0.15043,-0.27937 -0.21498,-0.60183 -0.21498,-0.94567 v -10.72316 z m 6.42542,0 v 10.72316 c 0,1.09599 -0.81652,1.99873 -1.89099,2.12767 l 0.98838,1.97713 c 1.76217,-0.53723 3.05165,-2.17072 3.05165,-4.1048 v -10.72316 z" />
      <path
         style="font-size:25px;font-family:Stenciletta;-inkscape-font-specification:'Stenciletta, Normal';fill:#808080;stroke:none;stroke-width:0.311653;stroke-linecap:round;stroke-dasharray:none"
         d="m 204.07449,161.50005 h -2.14899 v 14.99992 h 2.14899 z"
         id="path290" />
      <path
         id="path289"
         style="font-size:25px;font-family:Stenciletta;-inkscape-font-specification:'Stenciletta, Normal';fill:#808080;stroke:none;stroke-width:0.311653;stroke-linecap:round;stroke-dasharray:none"
         d="m 186.24718,161.51093 1.67639,3.33071 c 0.15042,0.27936 0.21496,0.60183 0.21496,0.94567 h 2.14869 c 0,-2.27794 -1.78361,-4.14744 -4.04004,-4.27638 z m -1.48276,0.17191 c -1.76217,0.53724 -3.05165,2.17037 -3.05165,4.10447 v 6.44678 c 0,2.27791 1.76225,4.12607 4.01868,4.255 l -1.65466,-3.30933 c -0.15043,-0.27937 -0.21497,-0.60183 -0.21497,-0.94567 v -6.44678 c 0,-1.09599 0.81685,-1.99875 1.89134,-2.12768 z m 1.22506,6.25351 1.07453,2.14904 h 1.07452 v 2.1487 c 0,1.09599 -0.81686,1.99873 -1.89135,2.12767 l 0.98874,1.97713 c 1.76216,-0.53723 3.0513,-2.17072 3.0513,-4.1048 v -4.29774 z" />
      <path
         id="path286"
         style="font-size:25px;font-family:Stenciletta;-inkscape-font-specification:'Stenciletta, Normal';fill:#808080;stroke:none;stroke-width:0.311653;stroke-linecap:round;stroke-dasharray:none"
         d="m 169.24717,161.51093 1.67603,3.33071 c 0.15043,0.27936 0.21497,0.60183 0.21497,0.94567 v 6.44678 c 0,1.09599 -0.81651,1.99873 -1.891,2.12767 l 0.9884,1.97713 c 1.76215,-0.53723 3.05165,-2.17072 3.05165,-4.1048 v -6.44678 c 0,-2.27794 -1.78362,-4.14744 -4.04005,-4.27638 z m -1.4831,0.17191 c -1.76216,0.53724 -3.0513,2.17037 -3.0513,4.10447 v 6.44678 c 0,2.27791 1.7619,4.12607 4.01833,4.255 l -1.65467,-3.30933 c -0.15043,-0.27937 -0.21463,-0.60183 -0.21463,-0.94567 v -6.44678 c 0,-1.09599 0.81651,-1.99875 1.891,-2.12768 z" />
      <path
         id="path284"
         style="font-size:25px;font-family:Stenciletta;-inkscape-font-specification:'Stenciletta, Normal';fill:#808080;stroke:none;stroke-width:0.311653;stroke-linecap:round;stroke-dasharray:none"
         d="m 148.25002,161.50008 v 14.99987 h 4.04005 l -1.07452,-2.14904 h -0.81649 v -12.85083 z m 4.53442,12.85083 1.07452,2.14904 h 1.89101 v -2.14904 z" />
      <path
         id="path282"
         style="font-size:25px;font-family:Stenciletta;-inkscape-font-specification:'Stenciletta, Normal';fill:#808080;stroke:none;stroke-width:0.311653;stroke-linecap:round;stroke-dasharray:none"
         d="m 135.24717,161.51093 1.67637,3.33071 c 0.15043,0.27936 0.21498,0.60183 0.21498,0.94567 v 6.44678 c 0,1.09599 -0.81686,1.99873 -1.89135,2.12767 l 0.98874,1.97713 c 1.76217,-0.53723 3.05131,-2.17072 3.05131,-4.1048 v -6.44678 c 0,-2.27794 -1.78362,-4.14744 -4.04005,-4.27638 z m -1.48276,0.17191 c -1.76217,0.53724 -3.05165,2.17037 -3.05165,4.10447 v 6.44678 c 0,2.27791 1.76225,4.12607 4.01869,4.255 l -1.65468,-3.30933 c -0.15043,-0.27937 -0.21497,-0.60183 -0.21497,-0.94567 v -6.44678 c 0,-1.09599 0.81686,-1.99875 1.89135,-2.12768 z" />
      <path
         id="path280"
         style="font-size:25px;font-family:Stenciletta;-inkscape-font-specification:'Stenciletta, Normal';fill:#808080;stroke:none;stroke-width:0.311653;stroke-linecap:round;stroke-dasharray:none"
         d="m 113.71277,161.50008 v 14.99987 h 2.14904 v -6.42541 h 0.81648 l 3.2022,6.42541 h 2.40674 l -4.29774,-8.57445 h -2.12768 v -4.27672 h 1.891 l -1.07452,-2.1487 z m 4.53441,0 1.67638,3.33071 c 0.15042,0.27936 0.21462,0.60183 0.21462,0.94567 0,0.68767 -0.30086,1.28921 -0.79512,1.67603 l 0.96703,1.93442 c 1.18194,-0.75215 1.97714,-2.08468 1.97714,-3.61045 0,-2.27794 -1.78362,-4.14744 -4.04005,-4.27638 z" />
      <path
         id="path278"
         style="font-size:25px;font-family:Stenciletta;-inkscape-font-specification:'Stenciletta, Normal';fill:#808080;stroke:none;stroke-width:0.311653;stroke-linecap:round;stroke-dasharray:none"
         d="m 101.24719,161.51093 1.67637,3.33071 c 0.15043,0.27936 0.21498,0.60183 0.21498,0.94567 v 6.44678 c 0,1.09599 -0.81686,1.99873 -1.89135,2.12767 l 0.98874,1.97713 c 1.76217,-0.53723 3.05129,-2.17072 3.05129,-4.1048 v -6.44678 c 0,-2.27794 -1.78359,-4.14744 -4.04003,-4.27638 z m -1.48276,0.17191 c -1.76217,0.53724 -3.05165,2.17037 -3.05165,4.10447 v 6.44678 c 0,2.27791 1.76225,4.12607 4.01868,4.255 l -1.65467,-3.30933 c -0.15043,-0.27937 -0.21498,-0.60183 -0.21498,-0.94567 v -6.44678 c 0,-1.09599 0.81686,-1.99875 1.89135,-2.12768 z" />
      <path
         id="path276"
         style="font-size:25px;font-family:Stenciletta;-inkscape-font-specification:'Stenciletta, Normal';fill:#808080;stroke:none;stroke-width:0.311653;stroke-linecap:round;stroke-dasharray:none"
         d="m 79.712771,161.50008 v 14.99987 h 2.148704 v -6.42541 h 1.891343 l -1.074522,-2.14904 h -0.816821 v -6.42542 z m 6.425422,0 v 6.42542 h -1.89135 l 1.074521,2.14904 h 0.816829 v 6.42541 h 2.149036 v -14.99987 z" />
    </g>
    <g
       id="g254"
       inkscape:label="verbum"
       style="fill:#808080">
      <path
         id="path115"
         style="font-size:25px;font-family:Stenciletta;-inkscape-font-specification:'Stenciletta, Normal';fill:#808080;stroke:none;stroke-width:0.311654;stroke-linecap:round;stroke-dasharray:none"
         d="m 45.175489,76.500023 3.223233,14.999943 h 2.192115 L 47.367256,76.500023 Z m 7.456907,0 -1.912713,8.918316 1.096227,5.114594 3.0086,-14.03291 z" />
      <path
         id="path147"
         style="font-size:25px;font-family:Stenciletta;-inkscape-font-specification:'Stenciletta, Normal';fill:#808080;stroke:none;stroke-width:0.311648;stroke-linecap:round;stroke-dasharray:none"
         d="m 46.250088,93.499995 v 14.999995 h 4.040326 l -1.074499,-2.14902 h -0.816816 v -4.27665 h 1.891315 l -1.074499,-2.148655 h -0.816816 v -4.27666 h 1.891315 l -1.074499,-2.14901 z m 4.534343,0 1.074505,2.14901 h 1.890976 v -2.14901 z m 0,6.42567 1.074505,2.148655 h 1.890976 v -2.148655 z m 0,6.425305 1.074505,2.14902 h 1.890976 v -2.14902 z" />
      <path
         id="path173"
         style="font-size:25px;font-family:Stenciletta;-inkscape-font-specification:'Stenciletta, Normal';fill:#808080;stroke:none;stroke-width:0.311212;stroke-linecap:round;stroke-dasharray:none"
         d="m 45.718833,110.51066 v 14.97866 h 2.145998 V 119.073 h 0.815335 l 3.19767,6.41632 h 2.403331 L 49.989159,116.927 h -2.124328 v -4.27033 h 1.88833 l -1.072995,-2.14601 z m 4.528,0 1.673662,3.32634 c 0.15022,0.27897 0.214668,0.60064 0.214668,0.944 0,0.68669 -0.300432,1.28772 -0.793998,1.674 l 0.965661,1.93134 c 1.18027,-0.75109 1.974341,-2.08173 1.974341,-3.60534 0,-2.27471 -1.781089,-4.14158 -4.034334,-4.27034 z" />
      <path
         id="path206"
         style="font-size:25px;font-family:Stenciletta;-inkscape-font-specification:'Stenciletta, Normal';fill:#808080;stroke:none;stroke-width:0.311652;stroke-linecap:round;stroke-dasharray:none"
         d="m 45.712781,127.50007 v 14.99984 h 4.040037 l -1.074519,-2.14903 h -0.81648 v -4.27636 h 1.890999 l -1.074519,-2.14904 h -0.81648 v -4.27671 h 1.890999 l -1.074519,-2.1487 z m 4.534406,0 1.676021,3.3307 c 0.150433,0.27937 0.214979,0.60184 0.214979,0.94568 0,1.09597 -0.816513,1.99839 -1.891,2.12732 l 1.676021,3.3524 c 0.150433,0.27936 0.214979,0.6232 0.214979,0.96704 0,1.09598 -0.816513,1.99873 -1.891,2.12767 l 0.988387,1.97713 c 1.762161,-0.53725 3.051645,-2.17072 3.051645,-4.1048 0,-1.37535 -0.64465,-2.51405 -1.654668,-3.22321 1.010018,-0.70916 1.654668,-1.84822 1.654668,-3.22355 0,-2.27793 -1.783607,-4.14743 -4.040032,-4.27638 z" />
      <path
         id="path235"
         style="font-size:25px;font-family:Stenciletta;-inkscape-font-specification:'Stenciletta, Normal';fill:#808080;stroke:none;stroke-width:0.311656;stroke-linecap:round;stroke-dasharray:none"
         d="m 45.712734,144.51067 v 10.72359 c 0,2.27795 1.783626,4.12611 4.040081,4.25505 l -1.676045,-3.30936 c -0.150435,-0.27937 -0.214974,-0.60184 -0.214974,-0.94569 v -10.72359 z m 6.42547,0 v 10.72359 c 0,1.096 -0.816515,1.99842 -1.89102,2.12735 l 0.988404,1.97716 c 1.76218,-0.53726 3.051677,-2.17041 3.051677,-4.10451 v -10.72359 z" />
      <path
         id="path271"
         style="font-size:25px;font-family:Stenciletta;-inkscape-font-specification:'Stenciletta, Normal';fill:#808080;stroke:none;stroke-width:0.311653;stroke-linecap:round;stroke-dasharray:none"
         d="m 44.369534,161.50008 4.469992,10.72316 h 2.320948 l 0.902609,-2.21347 v -5.37225 l -2.06291,5.28646 -3.30969,-8.4239 z m 9.111889,0 v 14.99987 h 2.149042 v -14.99987 z m -9.111889,3.65317 v 11.3467 h 2.149043 v -6.21078 z"
         inkscape:label="path271" />
    </g>
    <g
       id="g246"
       inkscape:label="one"
       style="fill:#808080">
      <path
         id="path324"
         style="font-size:25px;font-family:Stenciletta;-inkscape-font-specification:'Stenciletta, Normal';fill:#808080;stroke:none;stroke-width:0.311653;stroke-linecap:round;stroke-dasharray:none"
         d="m 233.25002,178.50007 v 14.99988 h 4.04005 l -1.07452,-2.14904 h -0.81649 v -4.27637 h 1.89101 l -1.07452,-2.14906 h -0.81649 v -4.27637 h 1.89101 l -1.07452,-2.14904 z m 4.53442,0 1.07451,2.14904 h 1.89101 v -2.14904 z m 0,6.42541 1.07451,2.14906 h 1.89101 v -2.14906 z m 0,6.42543 1.07451,2.14904 h 1.89101 v -2.14904 z" />
      <path
         id="path320"
         style="font-size:25px;font-family:Stenciletta;-inkscape-font-specification:'Stenciletta, Normal';fill:#808080;stroke:none;stroke-width:0.311653;stroke-linecap:round;stroke-dasharray:none"
         d="m 215.71276,178.50007 6.25351,14.99988 h 2.32095 l -6.25351,-14.99988 z m 6.42542,0 v 6.18908 l 2.14904,5.15764 v -11.34672 z m -6.42542,3.65351 v 11.34637 h 2.14904 v -6.18908 z" />
    </g>
    <g
       id="g245"
       inkscape:label="two"
       style="fill:#808080">
      <path
         id="path317"
         style="font-size:25px;font-family:Stenciletta;-inkscape-font-specification:'Stenciletta, Normal';fill:#808080;stroke:none;stroke-width:0.311653;stroke-linecap:round;stroke-dasharray:none"
         d="m 203.24717,178.51075 1.67639,3.33105 c 0.15043,0.27936 0.21462,0.60149 0.21462,0.94534 v 6.44711 c 0,1.09598 -0.81651,1.9984 -1.89101,2.12734 l 0.9884,1.97713 c 1.76217,-0.53724 3.05165,-2.17037 3.05165,-4.10447 v -6.44711 c 0,-2.27794 -1.78361,-4.14746 -4.04005,-4.27639 z m -1.48276,0.17191 c -1.76216,0.53724 -3.05164,2.17038 -3.05164,4.10448 v 6.44711 c 0,2.27794 1.76225,4.12608 4.01868,4.25503 l -1.65466,-3.30936 c -0.15044,-0.27936 -0.21498,-0.60183 -0.21498,-0.94567 v -6.44711 c 0,-1.09599 0.81651,-1.9984 1.89101,-2.12735 z" />
      <path
         id="path315"
         style="font-size:25px;font-family:Stenciletta;-inkscape-font-specification:'Stenciletta, Normal';fill:#808080;stroke:none;stroke-width:0.311653;stroke-linecap:round;stroke-dasharray:none"
         d="m 179.03731,178.50007 2.70784,14.99988 h 2.17039 l -2.70783,-14.99988 z m 11.75496,0 -1.24643,6.87673 1.31086,4.87823 2.10598,-11.75496 z m -5.88833,3.2022 -1.00975,3.73895 0.85955,4.79245 1.24642,-5.07185 2.04155,8.33813 h 2.21347 l -3.13778,-11.79768 z" />
    </g>
    <g
       id="g244"
       inkscape:label="eight"
       style="fill:#808080">
      <path
         id="path312"
         style="font-size:25px;font-family:Stenciletta;-inkscape-font-specification:'Stenciletta, Normal';fill:#808080;stroke:none;stroke-width:0.311653;stroke-linecap:round;stroke-dasharray:none"
         d="m 164.71277,178.50007 v 2.14904 h 3.22354 v 12.85084 h 2.12734 v -12.85084 l -1.07451,-2.14904 z m 5.86662,0 1.07451,2.14904 h 1.63332 v -2.14904 z" />
      <path
         id="path310"
         style="font-size:25px;font-family:Stenciletta;-inkscape-font-specification:'Stenciletta, Normal';fill:#808080;stroke:none;stroke-width:0.311653;stroke-linecap:round;stroke-dasharray:none"
         d="m 147.71276,178.50007 v 14.99988 h 2.1487 v -6.42541 h 1.89135 l -1.07451,-2.14906 h -0.81684 v -6.42541 z m 6.42543,0 v 6.42541 h -1.89135 l 1.07451,2.14906 h 0.81684 v 6.42541 h 2.14904 v -14.99988 z" />
      <path
         id="path308"
         style="font-size:25px;font-family:Stenciletta;-inkscape-font-specification:'Stenciletta, Normal';fill:#808080;stroke:none;stroke-width:0.311653;stroke-linecap:round;stroke-dasharray:none"
         d="m 135.24718,178.51075 1.67603,3.33105 c 0.15043,0.27936 0.21498,0.60149 0.21498,0.94534 h 2.14903 c 0,-2.27794 -1.78361,-4.14746 -4.04004,-4.27639 z m -1.48311,0.17191 c -1.76217,0.53724 -3.05131,2.17038 -3.05131,4.10448 v 6.44711 c 0,2.27794 1.76225,4.12608 4.01869,4.25503 l -1.65501,-3.30936 c -0.15044,-0.27936 -0.21464,-0.60183 -0.21464,-0.94567 v -6.44711 c 0,-1.09599 0.81651,-1.9984 1.891,-2.12735 z m 1.22507,6.2535 1.07452,2.14906 h 1.07453 v 2.14903 c 0,1.09598 -0.81652,1.9984 -1.89101,2.12734 l 0.98839,1.97713 c 1.76217,-0.53724 3.05165,-2.17037 3.05165,-4.10447 v -4.29809 z" />
      <path
         style="font-size:25px;font-family:Stenciletta;-inkscape-font-specification:'Stenciletta, Normal';fill:#808080;stroke:none;stroke-width:0.311653;stroke-linecap:round;stroke-dasharray:none"
         d="m 119.07449,178.50004 h -2.14899 v 14.99994 h 2.14899 z"
         id="path305" />
    </g>
    <g
       id="g243"
       inkscape:label="five"
       style="fill:#808080">
      <path
         id="path304"
         style="font-size:25px;font-family:Stenciletta;-inkscape-font-specification:'Stenciletta, Normal';fill:#808080;stroke:none;stroke-width:0.311653;stroke-linecap:round;stroke-dasharray:none"
         d="m 97.25003,178.50007 v 14.99988 h 4.04004 l -1.07451,-2.14904 h -0.81649 v -4.27637 h 1.891 l -1.07451,-2.14906 h -0.81649 v -4.27637 h 1.891 l -1.07451,-2.14904 z m 4.53442,0 1.07451,2.14904 h 1.89101 v -2.14904 z m 0,6.42541 1.07451,2.14906 h 1.89101 v -2.14906 z m 0,6.42543 1.07451,2.14904 h 1.89101 v -2.14904 z" />
      <path
         id="path300"
         style="font-size:25px;font-family:Stenciletta;-inkscape-font-specification:'Stenciletta, Normal';fill:#808080;stroke:none;stroke-width:0.311653;stroke-linecap:round;stroke-dasharray:none"
         d="m 79.17551,178.50007 3.223213,14.99988 h 2.192105 l -3.22356,-14.99988 z m 7.456876,0 -1.912712,8.91828 1.096229,5.11457 3.008587,-14.03285 z" />
      <path
         style="font-size:25px;font-family:Stenciletta;-inkscape-font-specification:'Stenciletta, Normal';fill:#808080;stroke:none;stroke-width:0.311653;stroke-linecap:round;stroke-dasharray:none"
         d="m 68.074495,178.50004 h -2.14899 v 14.99994 h 2.14899 z"
         id="path298" />
      <path
         id="path297"
         style="font-size:25px;font-family:Stenciletta;-inkscape-font-specification:'Stenciletta, Normal';fill:#808080;stroke:none;stroke-width:0.311653;stroke-linecap:round;stroke-dasharray:none"
         d="m 46.250029,178.50007 v 14.99988 h 2.149038 v -6.42541 h 1.891005 l -1.074522,-2.14906 h -0.816483 v -4.27637 h 1.891005 l -1.074522,-2.14904 z m 4.534415,0 1.074521,2.14904 h 1.891006 v -2.14904 z m 0,6.42541 1.074521,2.14906 h 1.891006 v -2.14906 z" />
    </g>
    <g
       id="g248"
       inkscape:label="forty"
       style="fill:#808080">
      <path
         id="path350"
         style="font-size:25px;font-family:Stenciletta;-inkscape-font-specification:'Stenciletta, Normal';fill:#808080;stroke:none;stroke-width:0.311654;stroke-linecap:round;stroke-dasharray:none"
         d="m 232.17549,195.5001 3.76066,8.57447 v 6.42544 h 2.12768 v -6.87674 l -3.54602,-8.12317 z m 7.30669,0 -1.71946,3.91121 1.18202,2.68613 2.87975,-6.59734 z" />
      <path
         id="path348"
         style="font-size:25px;font-family:Stenciletta;-inkscape-font-specification:'Stenciletta, Normal';fill:#808080;stroke:none;stroke-width:0.311654;stroke-linecap:round;stroke-dasharray:none"
         d="m 215.71275,195.5001 v 2.14905 h 3.22358 v 12.85086 h 2.12733 v -12.85086 l -1.07451,-2.14905 z m 5.86664,0 1.07453,2.14905 h 1.63331 v -2.14905 z" />
      <path
         id="path346"
         style="font-size:25px;font-family:Stenciletta;-inkscape-font-specification:'Stenciletta, Normal';fill:#808080;stroke:none;stroke-width:0.311654;stroke-linecap:round;stroke-dasharray:none"
         d="m 198.71275,195.5001 v 14.99991 h 2.14905 v -6.42544 h 0.81682 l 3.20187,6.42544 h 2.40674 l -4.29774,-8.57447 h -2.12769 v -4.27639 h 1.891 l -1.07418,-2.14905 z m 4.53443,0 1.67637,3.33071 c 0.15043,0.27937 0.21463,0.60185 0.21463,0.94567 0,0.68769 -0.30086,1.28957 -0.79512,1.67639 l 0.96703,1.93407 c 1.18194,-0.75215 1.97714,-2.08467 1.97714,-3.61046 0,-2.27791 -1.78362,-4.14743 -4.04005,-4.27638 z" />
      <path
         id="path344"
         style="font-size:25px;font-family:Stenciletta;-inkscape-font-specification:'Stenciletta, Normal';fill:#808080;stroke:none;stroke-width:0.311654;stroke-linecap:round;stroke-dasharray:none"
         d="m 186.24684,195.5001 1.67638,3.33071 c 0.15043,0.27937 0.21496,0.60185 0.21496,0.94567 v 6.44715 c 0,1.09599 -0.81685,1.9984 -1.89134,2.12734 l 0.98873,1.97714 c 1.76218,-0.53726 3.05166,-2.17039 3.05166,-4.10448 v -6.44715 c 0,-2.27791 -1.78396,-4.14743 -4.04039,-4.27638 z m -1.48278,0.17191 c -1.76216,0.53725 -3.0513,2.17039 -3.0513,4.10447 v 6.44715 c 0,2.27793 1.76192,4.12608 4.01835,4.25502 l -1.65467,-3.3097 c -0.15043,-0.27936 -0.21498,-0.60149 -0.21498,-0.94532 v -6.44715 c 0,-1.09598 0.81686,-1.9984 1.89136,-2.12733 z" />
      <path
         id="path342"
         style="font-size:25px;font-family:Stenciletta;-inkscape-font-specification:'Stenciletta, Normal';fill:#808080;stroke:none;stroke-width:0.311654;stroke-linecap:round;stroke-dasharray:none"
         d="m 165.25002,195.5001 v 14.99991 h 2.14905 v -6.42544 h 1.89101 l -1.07453,-2.14903 h -0.81648 v -4.27639 h 1.89101 l -1.07453,-2.14905 z m 4.53442,0 1.07453,2.14905 h 1.891 v -2.14905 z m 0,6.42544 1.07453,2.14903 h 1.891 v -2.14903 z" />
    </g>
    <g
       id="g247"
       inkscape:label="o'clock"
       style="fill:#808080">
      <path
         id="path339"
         style="font-size:25px;font-family:Stenciletta;-inkscape-font-specification:'Stenciletta, Normal';fill:#808080;stroke:none;stroke-width:0.311654;stroke-linecap:round;stroke-dasharray:none"
         d="m 147.71275,195.5001 v 14.99991 h 2.14906 V 195.5001 Z m 6.16774,0 -1.76249,3.52433 1.2037,2.40673 2.96553,-5.93106 z m -2.53593,5.09287 -1.20336,2.40709 3.73929,7.49995 h 2.40674 z" />
      <path
         id="path336"
         style="font-size:25px;font-family:Stenciletta;-inkscape-font-specification:'Stenciletta, Normal';fill:#808080;stroke:none;stroke-width:0.311654;stroke-linecap:round;stroke-dasharray:none"
         d="m 135.24683,195.52147 1.67638,3.30934 c 0.15042,0.27937 0.21498,0.6232 0.21498,0.96704 h 2.14904 c 0,-2.27793 -1.78396,-4.14745 -4.0404,-4.27638 z m -1.48277,0.15054 c -1.76217,0.53725 -3.05131,2.19175 -3.05131,4.12584 v 6.42578 c 0,2.27793 1.76191,4.14745 4.01835,4.27638 l -1.65468,-3.33106 c -0.15043,-0.27936 -0.21498,-0.60149 -0.21498,-0.94532 v -6.42578 c 0,-1.09599 0.81687,-2.01977 1.89136,-2.1487 z m 3.37413,10.55162 c 0,1.09599 -0.81686,1.9984 -1.89136,2.12734 l 0.98875,1.97714 c 1.76216,-0.53726 3.05165,-2.17039 3.05165,-4.10448 z" />
      <path
         id="path333"
         style="font-size:25px;font-family:Stenciletta;-inkscape-font-specification:'Stenciletta, Normal';fill:#808080;stroke:none;stroke-width:0.311654;stroke-linecap:round;stroke-dasharray:none"
         d="m 118.24718,195.5001 1.67604,3.33071 c 0.15043,0.27937 0.21498,0.60185 0.21498,0.94567 v 6.44715 c 0,1.09599 -0.81651,1.9984 -1.89102,2.12734 l 0.9884,1.97714 c 1.76217,-0.53726 3.05166,-2.17039 3.05166,-4.10448 v -6.44715 c 0,-2.27791 -1.78362,-4.14743 -4.04006,-4.27638 z m -1.48276,0.17191 c -1.76218,0.53725 -3.05166,2.17039 -3.05166,4.10447 v 6.44715 c 0,2.27793 1.76226,4.12608 4.01869,4.25502 l -1.65501,-3.3097 c -0.15043,-0.27936 -0.21464,-0.60149 -0.21464,-0.94532 v -6.44715 c 0,-1.09598 0.81653,-1.9984 1.89102,-2.12733 z" />
      <path
         id="path331"
         style="font-size:25px;font-family:Stenciletta;-inkscape-font-specification:'Stenciletta, Normal';fill:#808080;stroke:none;stroke-width:0.311654;stroke-linecap:round;stroke-dasharray:none"
         d="m 97.25003,195.5001 v 14.99991 h 4.04005 l -1.07453,-2.14904 H 99.39907 V 195.5001 Z m 4.53442,12.85087 1.07452,2.14904 h 1.891 v -2.14904 z" />
      <path
         id="path329"
         style="font-size:25px;font-family:Stenciletta;-inkscape-font-specification:'Stenciletta, Normal';fill:#808080;stroke:none;stroke-width:0.311654;stroke-linecap:round;stroke-dasharray:none"
         d="m 84.247189,195.52147 1.676036,3.30934 c 0.150426,0.27937 0.214973,0.6232 0.214973,0.96704 h 2.149041 c 0,-2.27793 -1.783617,-4.14745 -4.04005,-4.27638 z m -1.48277,0.15054 c -1.762169,0.53725 -3.051659,2.19175 -3.051659,4.12584 v 6.42578 c 0,2.27793 1.762256,4.14745 4.018697,4.27638 l -1.655016,-3.33106 c -0.150433,-0.27936 -0.214633,-0.60149 -0.214633,-0.94532 v -6.42578 c 0,-1.09599 0.816518,-2.01977 1.891009,-2.1487 z m 3.373779,10.55162 c 0,1.09599 -0.816519,1.9984 -1.891009,2.12734 l 0.98839,1.97714 c 1.762176,-0.53726 3.05166,-2.17039 3.05166,-4.10448 z" />
      <path
         style="font-size:25px;font-family:Stenciletta;-inkscape-font-specification:'Stenciletta, Normal';fill:#808080;stroke:none;stroke-width:0.311654;stroke-linecap:round;stroke-dasharray:none"
         d="m 68.074497,195.50001 h -2.148994 v 4.27649 h 2.148994 z"
         id="path326" />
      <path
         id="path325"
         style="font-size:25px;font-family:Stenciletta;-inkscape-font-specification:'Stenciletta, Normal';fill:#808080;stroke:none;stroke-width:0.311654;stroke-linecap:round;stroke-dasharray:none"
         d="m 50.247184,195.5001 1.676382,3.33071 c 0.150426,0.27937 0.214973,0.60185 0.214973,0.94567 v 6.44715 c 0,1.09599 -0.816858,1.9984 -1.891355,2.12734 l 0.988737,1.97714 c 1.762176,-0.53726 3.051316,-2.17039 3.051316,-4.10448 v -6.44715 c 0,-2.27791 -1.783612,-4.14743 -4.040053,-4.27638 z m -1.482763,0.17191 c -1.762176,0.53725 -3.051659,2.17039 -3.051659,4.10447 v 6.44715 c 0,2.27793 1.762255,4.12608 4.01869,4.25502 l -1.654669,-3.3097 c -0.150426,-0.27936 -0.21498,-0.60149 -0.21498,-0.94532 v -6.44715 c 0,-1.09598 0.816858,-1.9984 1.891355,-2.12733 z" />
    </g>
    <g
       id="g250"
       inkscape:label="thirty"
       style="fill:#808080">
      <path
         id="path376"
         style="font-size:25px;font-family:Stenciletta;-inkscape-font-specification:'Stenciletta, Normal';fill:#808080;stroke:none;stroke-width:0.311653;stroke-linecap:round;stroke-dasharray:none"
         d="m 232.1755,212.50006 3.76065,8.57444 v 6.42542 h 2.12768 v -6.87672 l -3.54602,-8.12314 z m 7.30667,0 -1.71944,3.9112 1.18201,2.68612 2.87974,-6.59732 z" />
      <path
         id="path374"
         style="font-size:25px;font-family:Stenciletta;-inkscape-font-specification:'Stenciletta, Normal';fill:#808080;stroke:none;stroke-width:0.311653;stroke-linecap:round;stroke-dasharray:none"
         d="m 215.71277,212.50006 v 2.14904 h 3.22356 v 12.85082 h 2.12732 V 214.6491 l -1.07452,-2.14904 z m 5.86661,0 1.07452,2.14904 h 1.63331 v -2.14904 z" />
      <path
         id="path372"
         style="font-size:25px;font-family:Stenciletta;-inkscape-font-specification:'Stenciletta, Normal';fill:#808080;stroke:none;stroke-width:0.311653;stroke-linecap:round;stroke-dasharray:none"
         d="m 198.71276,212.50006 v 14.99986 h 2.14904 v -6.42542 h 0.81683 l 3.20187,6.42542 h 2.40672 l -4.29773,-8.57446 h -2.12769 v -4.27636 h 1.89101 l -1.07417,-2.14904 z m 4.53442,0 1.67637,3.33105 c 0.15043,0.27936 0.21462,0.60183 0.21462,0.94567 0,0.68767 -0.30084,1.28921 -0.79513,1.67603 l 0.96705,1.93406 c 1.18193,-0.75215 1.97712,-2.08431 1.97712,-3.61009 0,-2.27793 -1.78361,-4.14778 -4.04003,-4.27672 z" />
      <path
         style="font-size:25px;font-family:Stenciletta;-inkscape-font-specification:'Stenciletta, Normal';fill:#808080;stroke:none;stroke-width:0.311653;stroke-linecap:round;stroke-dasharray:none"
         d="m 187.07449,212.50003 h -2.14899 v 14.99992 h 2.14899 z"
         id="path370" />
      <path
         id="path369"
         style="font-size:25px;font-family:Stenciletta;-inkscape-font-specification:'Stenciletta, Normal';fill:#808080;stroke:none;stroke-width:0.311653;stroke-linecap:round;stroke-dasharray:none"
         d="m 164.71277,212.50006 v 14.99986 h 2.14903 v -6.42542 h 1.89101 l -1.07452,-2.14904 h -0.81649 v -6.4254 z m 6.4254,0 v 6.4254 h -1.89099 l 1.07417,2.14904 h 0.81682 v 6.42542 h 2.14905 v -14.99986 z" />
      <path
         id="path367"
         style="font-size:25px;font-family:Stenciletta;-inkscape-font-specification:'Stenciletta, Normal';fill:#808080;stroke:none;stroke-width:0.311653;stroke-linecap:round;stroke-dasharray:none"
         d="m 147.71276,212.50006 v 2.14904 h 3.22322 v 12.85082 h 2.12767 V 214.6491 l -1.07453,-2.14904 z m 5.86662,0 1.07452,2.14904 h 1.63332 v -2.14904 z" />
    </g>
    <g
       id="g249"
       inkscape:label="twenty"
       style="fill:#808080">
      <path
         id="path365"
         style="font-size:25px;font-family:Stenciletta;-inkscape-font-specification:'Stenciletta, Normal';fill:#808080;stroke:none;stroke-width:0.311653;stroke-linecap:round;stroke-dasharray:none"
         d="m 130.17551,212.50006 3.76099,8.57444 v 6.42542 h 2.12734 v -6.87672 l -3.54568,-8.12314 z m 7.30667,0 -1.71911,3.9112 1.18201,2.68612 2.87939,-6.59732 z" />
      <path
         id="path363"
         style="font-size:25px;font-family:Stenciletta;-inkscape-font-specification:'Stenciletta, Normal';fill:#808080;stroke:none;stroke-width:0.311653;stroke-linecap:round;stroke-dasharray:none"
         d="m 113.71277,212.50006 v 2.14904 h 3.22355 v 12.85082 H 119.064 V 214.6491 l -1.07451,-2.14904 z m 5.86696,0 1.07452,2.14904 h 1.63297 v -2.14904 z" />
      <path
         id="path361"
         style="font-size:25px;font-family:Stenciletta;-inkscape-font-specification:'Stenciletta, Normal';fill:#808080;stroke:none;stroke-width:0.311653;stroke-linecap:round;stroke-dasharray:none"
         d="m 96.71278,212.50006 6.2535,14.99986 h 2.32094 l -6.25349,-14.99986 z m 6.42541,0 v 6.18908 l 2.14903,5.15763 v -11.34671 z m -6.42541,3.65349 v 11.34637 h 2.14904 v -6.18908 z" />
      <path
         id="path358"
         style="font-size:25px;font-family:Stenciletta;-inkscape-font-specification:'Stenciletta, Normal';fill:#808080;stroke:none;stroke-width:0.311653;stroke-linecap:round;stroke-dasharray:none"
         d="m 80.250037,212.50006 v 14.99986 h 4.040037 l -1.07452,-2.1487 h -0.816482 v -4.27672 h 1.891002 l -1.07452,-2.14904 h -0.816482 v -4.27636 h 1.891002 l -1.07452,-2.14904 z m 4.534408,0 1.074514,2.14904 h 1.891003 v -2.14904 z m 0,6.4254 1.074514,2.14904 h 1.891003 v -2.14904 z m 0,6.42576 1.074514,2.1487 h 1.891003 v -2.1487 z" />
      <path
         id="path354"
         style="font-size:25px;font-family:Stenciletta;-inkscape-font-specification:'Stenciletta, Normal';fill:#808080;stroke:none;stroke-width:0.311653;stroke-linecap:round;stroke-dasharray:none"
         d="m 60.037328,212.50006 2.707488,14.99986 h 2.170741 l -2.707828,-14.99986 z m 11.754946,0 -1.246429,6.87672 1.310852,4.87822 2.105975,-11.75494 z m -5.888324,3.2022 -1.010097,3.73893 0.859547,4.79246 1.246428,-5.07151 2.041553,8.33778 h 2.21346 l -3.13743,-11.79766 z" />
      <path
         id="path351"
         style="font-size:25px;font-family:Stenciletta;-inkscape-font-specification:'Stenciletta, Normal';fill:#808080;stroke:none;stroke-width:0.311653;stroke-linecap:round;stroke-dasharray:none"
         d="m 45.712774,212.50006 v 2.14904 h 3.223562 v 12.85082 h 2.127675 V 214.6491 l -1.074522,-2.14904 z m 5.866967,0 1.07452,2.14904 h 1.632964 v -2.14904 z" />
    </g>
    <g
       id="g251"
       inkscape:label="five"
       style="fill:#808080">
      <path
         id="path403"
         style="font-size:25px;font-family:Stenciletta;-inkscape-font-specification:'Stenciletta, Normal';fill:#808080;stroke:none;stroke-width:0.311654;stroke-linecap:round;stroke-dasharray:none"
         d="m 233.25001,229.50006 v 14.99993 h 4.04007 l -1.07453,-2.14905 h -0.81649 v -4.2764 h 1.89102 l -1.07453,-2.14904 h -0.81649 v -4.27639 h 1.89102 l -1.07453,-2.14905 z m 4.53443,0 1.07452,2.14905 h 1.89102 v -2.14905 z m 0,6.42544 1.07452,2.14904 h 1.89102 v -2.14904 z m 0,6.42544 1.07452,2.14905 h 1.89102 v -2.14905 z" />
      <path
         id="path399"
         style="font-size:25px;font-family:Stenciletta;-inkscape-font-specification:'Stenciletta, Normal';fill:#808080;stroke:none;stroke-width:0.311654;stroke-linecap:round;stroke-dasharray:none"
         d="m 215.17549,229.50006 3.22322,14.99993 h 2.1921 l -3.22355,-14.99993 z m 7.4569,0 -1.91271,8.91831 1.09622,5.11459 3.0086,-14.0329 z" />
      <path
         style="font-size:25px;font-family:Stenciletta;-inkscape-font-specification:'Stenciletta, Normal';fill:#808080;stroke:none;stroke-width:0.311654;stroke-linecap:round;stroke-dasharray:none"
         d="m 204.07449,229.49999 h -2.149 v 14.99999 h 2.149 z"
         id="path397" />
      <path
         id="path396"
         style="font-size:25px;font-family:Stenciletta;-inkscape-font-specification:'Stenciletta, Normal';fill:#808080;stroke:none;stroke-width:0.311654;stroke-linecap:round;stroke-dasharray:none"
         d="m 182.25001,229.50006 v 14.99993 h 2.14904 v -6.42545 h 1.89101 l -1.07452,-2.14904 h -0.81649 v -4.27639 h 1.89101 l -1.07452,-2.14905 z m 4.53443,0 1.07452,2.14905 h 1.89101 v -2.14905 z m 0,6.42544 1.07452,2.14904 h 1.89101 v -2.14904 z" />
    </g>
    <g
       id="g253"
       inkscape:label="no"
       style="fill:#808080">
      <path
         id="path393"
         style="font-size:25px;font-family:Stenciletta;-inkscape-font-specification:'Stenciletta, Normal';fill:#808080;stroke:none;stroke-width:0.311654;stroke-linecap:round;stroke-dasharray:none"
         d="m 169.24717,229.50006 1.67639,3.33071 c 0.15043,0.27937 0.21463,0.60185 0.21463,0.94568 v 6.44714 c 0,1.09599 -0.81651,1.99841 -1.89102,2.12735 l 0.98874,1.97714 c 1.76218,-0.53725 3.05132,-2.17038 3.05132,-4.10449 v -6.44714 c 0,-2.27794 -1.78362,-4.14746 -4.04006,-4.27639 z m -1.48277,0.17192 c -1.76216,0.53724 -3.05165,2.17038 -3.05165,4.10447 v 6.44714 c 0,2.27795 1.76225,4.1261 4.01869,4.25504 l -1.65467,-3.3097 c -0.15044,-0.27936 -0.21498,-0.6015 -0.21498,-0.94534 v -6.44714 c 0,-1.09599 0.81652,-1.9984 1.89101,-2.12734 z" />
      <path
         id="path391"
         style="font-size:25px;font-family:Stenciletta;-inkscape-font-specification:'Stenciletta, Normal';fill:#808080;stroke:none;stroke-width:0.311654;stroke-linecap:round;stroke-dasharray:none"
         d="m 147.71275,229.50006 6.25387,14.99993 h 2.32062 l -6.25353,-14.99993 z m 6.42578,0 v 6.1891 l 2.14871,5.15765 v -11.34675 z m -6.42578,3.65317 v 11.34676 h 2.14906 v -6.18911 z" />
    </g>
    <g
       id="g252"
       inkscape:label="nice."
       style="fill:#808080">
      <path
         style="font-size:25px;font-family:Stenciletta;-inkscape-font-specification:'Stenciletta, Normal';fill:#808080;stroke:none;stroke-width:0.311654;stroke-linecap:round;stroke-dasharray:none"
         d="m 136.0745,241.81374 h -2.14901 v 2.68624 h 2.14901 z"
         id="path388" />
      <path
         id="path387"
         style="font-size:25px;font-family:Stenciletta;-inkscape-font-specification:'Stenciletta, Normal';fill:#808080;stroke:none;stroke-width:0.311654;stroke-linecap:round;stroke-dasharray:none"
         d="m 114.25001,229.50006 v 14.99993 h 4.04006 l -1.07452,-2.14905 h -0.81683 v -4.2764 h 1.89135 l -1.07452,-2.14904 h -0.81683 v -4.27639 h 1.89135 l -1.07452,-2.14905 z m 4.53408,0 1.07453,2.14905 h 1.89136 v -2.14905 z m 0,6.42544 1.07453,2.14904 h 1.89136 v -2.14904 z m 0,6.42544 1.07453,2.14905 h 1.89136 v -2.14905 z" />
      <path
         id="path383"
         style="font-size:25px;font-family:Stenciletta;-inkscape-font-specification:'Stenciletta, Normal';fill:#808080;stroke:none;stroke-width:0.311654;stroke-linecap:round;stroke-dasharray:none"
         d="m 101.24719,229.52142 1.67637,3.30935 c 0.15043,0.27937 0.21464,0.6232 0.21464,0.96704 h 2.14904 c 0,-2.27793 -1.78361,-4.14745 -4.04005,-4.27639 z m -1.48277,0.15056 c -1.76218,0.53724 -3.05166,2.19174 -3.05166,4.12583 v 6.42578 c 0,2.27795 1.76226,4.14746 4.01869,4.2764 l -1.65468,-3.33106 c -0.15042,-0.27936 -0.21497,-0.6015 -0.21497,-0.94534 v -6.42578 c 0,-1.09599 0.81652,-2.01976 1.89102,-2.1487 z m 3.37378,10.55161 c 0,1.09599 -0.81651,1.99841 -1.89101,2.12735 l 0.9884,1.97714 c 1.76216,-0.53725 3.05165,-2.17038 3.05165,-4.10449 z" />
      <path
         style="font-size:25px;font-family:Stenciletta;-inkscape-font-specification:'Stenciletta, Normal';fill:#808080;stroke:none;stroke-width:0.311654;stroke-linecap:round;stroke-dasharray:none"
         d="m 85.074495,229.49999 h -2.148991 v 14.99999 h 2.148991 z"
         id="path380" />
      <path
         id="path379"
         style="font-size:25px;font-family:Stenciletta;-inkscape-font-specification:'Stenciletta, Normal';fill:#808080;stroke:none;stroke-width:0.311654;stroke-linecap:round;stroke-dasharray:none"
         d="m 62.712755,229.50006 6.253531,14.99993 h 2.320959 l -6.253532,-14.99993 z m 6.42544,0 v 6.1891 l 2.149049,5.15765 v -11.34675 z m -6.42544,3.65317 v 11.34676 h 2.148705 v -6.18911 z" />
    </g>
    <path
       style="font-size:25px;font-family:Stenciletta;-inkscape-font-specification:'Stenciletta, Normal';fill:#808080;stroke:none;stroke-width:0.311654;stroke-linecap:round;stroke-dasharray:none"
       d="m 52.944123,236.99998 h -5.888246 v 2.149 h 5.888246 z"
       id="path47"
       inkscape:label="hyphen" />
    <g
       id="g229"
       inkscape:label="past"
       style="fill:#808080">
      <path
         id="path114"
         style="font-size:25px;font-family:Stenciletta;-inkscape-font-specification:'Stenciletta, Normal';fill:#808080;stroke:none;stroke-width:0.311648;stroke-linecap:round;stroke-dasharray:none"
         d="m 232.71282,59.499999 v 2.14901 h 3.22352 v 12.85099 h 2.1273 v -12.85099 l -1.0745,-2.14901 z m 5.86655,0 1.07449,2.14901 h 1.6333 v -2.14901 z" />
      <path
         id="path112"
         style="font-size:25px;font-family:Stenciletta;-inkscape-font-specification:'Stenciletta, Normal';fill:#808080;stroke:none;stroke-width:0.311648;stroke-linecap:round;stroke-dasharray:none"
         d="m 220.24716,59.510851 1.67601,3.330999 c 0.15043,0.279364 0.21498,0.601828 0.21498,0.94566 h 2.149 c 0,-2.277891 -1.78358,-4.147721 -4.03999,-4.276659 z m -1.48274,0.171907 c -1.76213,0.537237 -3.05159,2.170694 -3.05159,4.104752 0,2.277891 1.78358,4.147377 4.03998,4.276315 l -1.67601,-3.309294 c -0.15043,-0.279364 -0.21496,-0.623188 -0.21496,-0.967021 0,-1.095966 0.81649,-1.998713 1.89097,-2.127649 z m 1.48274,6.27512 1.67601,3.309295 c 0.15043,0.279363 0.21498,0.623187 0.21498,0.96702 0,1.095966 -0.81651,1.998712 -1.89099,2.12765 l 0.98839,1.976757 c 1.76213,-0.537238 3.0516,-2.170349 3.0516,-4.104407 0,-2.277891 -1.78358,-4.147378 -4.03999,-4.276315 z m -4.53433,4.276315 c 0,2.277891 1.78358,4.126018 4.03998,4.254954 l -1.67601,-3.309294 c -0.15043,-0.279364 -0.21496,-0.601827 -0.21496,-0.94566 z" />
      <path
         id="path108"
         style="font-size:25px;font-family:Stenciletta;-inkscape-font-specification:'Stenciletta, Normal';fill:#808080;stroke:none;stroke-width:0.311648;stroke-linecap:round;stroke-dasharray:none"
         d="m 202.40917,59.499999 3.22317,15 h 2.19207 l -3.22351,-15 z m -1.22505,0.96702 -3.00854,14.03298 h 2.19207 l 0.68763,-3.223514 h 2.44976 l -0.47266,-2.127648 h -1.5258 l 0.7734,-3.567328 z" />
      <path
         id="path106"
         style="font-size:25px;font-family:Stenciletta;-inkscape-font-specification:'Stenciletta, Normal';fill:#808080;stroke:none;stroke-width:0.311648;stroke-linecap:round;stroke-dasharray:none"
         d="m 181.71283,59.499999 v 15 h 2.14902 v -6.425668 h 1.89097 l -1.07451,-2.148664 h -0.81646 v -4.276658 h 1.89097 l -1.07451,-2.14901 z m 4.53435,0 1.67601,3.330999 c 0.15043,0.279364 0.21496,0.601828 0.21496,0.94566 0,1.095967 -0.81649,1.998368 -1.89097,2.127305 l 0.98837,1.977103 c 1.76215,-0.53724 3.05161,-2.17035 3.05161,-4.104408 0,-2.277891 -1.78358,-4.147721 -4.03998,-4.276659 z" />
    </g>
    <g
       id="g228"
       inkscape:label="quarter"
       style="fill:#808080">
      <path
         id="path101"
         style="font-size:25px;font-family:Stenciletta;-inkscape-font-specification:'Stenciletta, Normal';fill:#808080;stroke:none;stroke-width:0.311648;stroke-linecap:round;stroke-dasharray:none"
         d="m 147.71282,59.499999 v 15 h 2.14867 v -6.425668 h 0.81682 l 3.2018,6.425668 h 2.40705 l -4.29803,-8.574332 h -2.12764 v -4.276658 h 1.89132 l -1.0745,-2.14901 z m 4.53401,0 1.67634,3.330999 c 0.15043,0.279364 0.21498,0.601828 0.21498,0.94566 0,0.687666 -0.30085,1.289196 -0.79512,1.676006 l 0.96703,1.934039 c 1.18192,-0.752132 1.9771,-2.084287 1.9771,-3.610045 0,-2.277891 -1.78394,-4.147721 -4.04033,-4.276659 z" />
      <path
         id="path99"
         style="font-size:25px;font-family:Stenciletta;-inkscape-font-specification:'Stenciletta, Normal';fill:#808080;stroke:none;stroke-width:0.311648;stroke-linecap:round;stroke-dasharray:none"
         d="m 131.25008,59.499999 v 15 h 4.03998 l -1.07416,-2.149008 h -0.81682 v -4.27666 h 1.89098 l -1.07416,-2.148664 h -0.81682 v -4.276658 h 1.89098 l -1.07416,-2.14901 z m 4.53435,0 1.0745,2.14901 h 1.89098 v -2.14901 z m 0,6.425668 1.0745,2.148664 h 1.89098 v -2.148664 z m 0,6.425324 1.0745,2.149008 h 1.89098 v -2.149008 z" />
      <path
         id="path95"
         style="font-size:25px;font-family:Stenciletta;-inkscape-font-specification:'Stenciletta, Normal';fill:#808080;stroke:none;stroke-width:0.311648;stroke-linecap:round;stroke-dasharray:none"
         d="m 113.71283,59.499999 v 2.14901 h 3.22351 v 12.85099 h 2.12731 v -12.85099 l -1.07416,-2.14901 z m 5.86688,0 1.07416,2.14901 h 1.6333 v -2.14901 z" />
      <path
         id="path93"
         style="font-size:25px;font-family:Stenciletta;-inkscape-font-specification:'Stenciletta, Normal';fill:#808080;stroke:none;stroke-width:0.311648;stroke-linecap:round;stroke-dasharray:none"
         d="m 96.712835,59.499999 v 15 h 2.14867 v -6.425668 h 0.81681 l 3.201805,6.425668 h 2.40704 l -4.29802,-8.574332 h -2.127635 v -4.276658 h 1.891315 l -1.074505,-2.14901 z m 4.534005,0 1.67635,3.330999 c 0.15042,0.279364 0.21497,0.601828 0.21497,0.94566 0,0.687666 -0.30085,1.289196 -0.79512,1.676006 l 0.96702,1.934039 c 1.18193,-0.752132 1.9771,-2.084287 1.9771,-3.610045 0,-2.277891 -1.78393,-4.147721 -4.04032,-4.276659 z" />
      <path
         id="path91"
         style="font-size:25px;font-family:Stenciletta;-inkscape-font-specification:'Stenciletta, Normal';fill:#808080;stroke:none;stroke-width:0.311648;stroke-linecap:round;stroke-dasharray:none"
         d="m 83.409008,59.499999 3.223511,15 h 2.191724 l -3.223164,-15 z m -1.225057,0.96702 -3.008194,14.03298 h 2.191724 l 0.687627,-3.223514 h 2.449759 l -0.472658,-2.127648 h -1.525803 l 0.773758,-3.567328 z" />
      <path
         id="path89"
         style="font-size:25px;font-family:Stenciletta;-inkscape-font-specification:'Stenciletta, Normal';fill:#808080;stroke:none;stroke-width:0.311648;stroke-linecap:round;stroke-dasharray:none"
         d="m 62.712833,59.510851 v 10.723342 c 0,2.277891 1.783585,4.126018 4.039987,4.254954 l -1.676353,-3.309294 c -0.150424,-0.279364 -0.21497,-0.601827 -0.21497,-0.94566 V 59.510851 Z m 6.425325,0 v 10.723342 c 0,1.095966 -0.816845,1.998712 -1.891321,2.12765 L 68.23556,74.3386 c 1.762142,-0.537238 3.051606,-2.170349 3.051606,-4.104407 V 59.510851 Z" />
      <path
         id="path87"
         style="font-size:25px;font-family:Stenciletta;-inkscape-font-specification:'Stenciletta, Normal';fill:#808080;stroke:none;stroke-width:0.311648;stroke-linecap:round;stroke-dasharray:none"
         d="m 50.247181,59.510851 1.676007,3.330999 c 0.15043,0.279364 0.214969,0.601829 0.214969,0.94566 v 6.446683 c 0,0.386811 -0.086,0.730802 -0.279391,1.053144 h -2.14901 l 1.60125,3.20181 H 53.696 l -0.633886,-1.267771 c 0.752132,-0.773622 1.225052,-1.826749 1.225052,-2.987183 V 63.78751 c 0,-2.277888 -1.783585,-4.147721 -4.039985,-4.276659 z m -1.48274,0.171907 c -1.762144,0.537237 -3.051607,2.170697 -3.051607,4.104752 v 6.446683 c 0,2.277887 1.762225,4.126018 4.018627,4.254954 l -1.654648,-3.309294 c -0.15043,-0.279364 -0.214969,-0.601829 -0.214969,-0.94566 V 63.78751 c 0,-1.095965 0.816504,-1.998713 1.890975,-2.127649 z" />
    </g>
    <path
       id="path458"
       style="font-size:25px;font-family:Stenciletta;-inkscape-font-specification:'Stenciletta, Normal';display:inline;fill:#808080;stroke:none;stroke-width:0.311655;stroke-linecap:round;stroke-dasharray:none"
       d="m 168.92489,59.499999 1.50448,3.029971 c 0.10745,0.2149 0.17191,0.451468 0.17191,0.709349 v 1.07453 c 0,0.88109 -0.70917,1.611619 -1.59026,1.611619 h -1.07453 v 4.298115 h 2.12735 v -2.320967 c 1.54729,-0.451295 2.68616,-1.891054 2.68616,-3.588767 v -1.07453 c 0,-2.063041 -1.67594,-3.73932 -3.73898,-3.73932 z m -1.41835,0.300761 c -1.33238,0.580229 -2.25654,1.89128 -2.25654,3.438559 h 2.14905 c 0,-0.709169 0.45132,-1.289578 1.07453,-1.504479 z m 0.42995,12.013089 v 2.68615 h 2.12735 v -2.68615 z"
       inkscape:label="?" />
    <path
       id="path459"
       style="font-size:32.235px;font-family:Stenciletta;-inkscape-font-specification:'Stenciletta, Normal';display:inline;fill:#808080;stroke:none;stroke-width:0.311212;stroke-linecap:round;stroke-dasharray:none"
       d="m 235.92699,110.51066 v 10.70832 h 2.14601 v -10.70832 z m 0,12.29633 v 2.68233 h 2.14601 v -2.68233 z"
       inkscape:label="!" />
    <path
       id="path461"
       style="font-size:25px;font-family:Stenciletta;-inkscape-font-specification:'Stenciletta, Normal';display:inline;fill:#808080;stroke:none;stroke-width:0.311654;stroke-linecap:round;stroke-dasharray:none"
       d="m 234.0557,42.500002 v 2.148695 h 3.24503 l -1.07457,-2.148695 z m 3.73944,0 1.07457,2.148695 v 8.832884 c 0,0.9026 -0.64468,1.654711 -1.4828,1.826636 l 0.98839,1.95546 c 1.54731,-0.558753 2.64356,-2.041368 2.64356,-3.782096 V 42.500002 Z m -4.81401,10.723488 v 0.258091 c 0,2.192028 1.76259,3.975439 3.93313,4.018421 l -1.59031,-3.18062 c -0.12895,-0.257886 -0.19369,-0.536935 -0.19369,-0.837801 V 53.22349 Z"
       inkscape:label="J" />
    <path
       id="path464"
       style="font-size:25px;font-family:Stenciletta;-inkscape-font-specification:'Stenciletta, Normal';display:inline;fill:#808080;stroke:none;stroke-width:0.311648;stroke-linecap:round;stroke-dasharray:none"
       d="m 45.981215,42.500147 v 2.148654 h 4.04011 l -1.07455,-2.148654 z m 4.53452,0 1.07455,2.148654 -5.60907,10.702402 v 2.148654 h 3.50306 l -1.07455,-2.148654 5.60906,-10.702402 v -2.148654 z m -0.537051,12.851056 1.074091,2.148654 h 2.96601 v -2.148654 z"
       inkscape:label="Z" />
    <path
       id="path442"
       style="display:inline;fill:#808080;fill-opacity:1;stroke:none;stroke-width:0.894432;stroke-linecap:round;stroke-dasharray:none;stroke-opacity:1"
       inkscape:transform-center-y="6.2634285e-06"
       d="m 66.000057,161.50001 v 1.99989 h 1.999885 v -1.99989 z m -1.884474,0.50505 -1.731511,0.99977 0.99977,1.73186 1.731856,-0.99977 z m 5.768833,0 -1.000116,1.73186 1.731856,1.00011 1.000115,-1.7322 z m -8.879766,2.37885 -0.999769,1.73151 6.994946,4.03939 5.263091,-3.03893 c 0.0017,-0.001 0.0032,-0.002 0.0048,-0.004 l -0.0048,0.002 -0.999771,-1.73151 -4.26332,2.46083 z m -1.504822,3.61599 v 1.99988 h 2.000229 v -1.99988 z m 13.000113,0 v 1.99988 h 2.00023 v -1.99988 z m -10.76286,2.88424 -1.7322,1.00011 1.000114,1.73186 1.731856,-1.00012 z m 10.525837,0 -0.999771,1.73185 1.731856,1.00012 1.000114,-1.73186 z m -8.879076,2.37885 -1.000114,1.73185 1.731855,1.00012 1.000115,-1.73221 z m 7.232314,0 -1.731856,0.99976 1.000116,1.73221 1.731855,-1.00012 z m -4.616099,1.23679 v 2.00023 h 1.999885 v -2.00023 z"
       sodipodi:nodetypes="ccccccccccccccccccccccccccccccccccccccccccccccccccccccccccc"
       inkscape:label="clock" />
  </g>
</svg>
