<?xml version="1.0" encoding="UTF-8" standalone="no"?>
<svg
   viewBox="0 0 793.7007874015749 1122.5196850393702"
   width="793.7007874015749"
   height="1122.5196850393702"
   version="1.1"
   id="svg9"
   sodipodi:docname="verbum-horologium_acrilic.svg"
   inkscape:version="1.3.2 (091e20e, 2023-11-25, custom)"
   xmlns:inkscape="http://www.inkscape.org/namespaces/inkscape"
   xmlns:sodipodi="http://sodipodi.sourceforge.net/DTD/sodipodi-0.dtd"
   xmlns="http://www.w3.org/2000/svg"
   xmlns:svg="http://www.w3.org/2000/svg">
  <sodipodi:namedview
     id="namedview9"
     pagecolor="#ffffff"
     bordercolor="#000000"
     borderopacity="0.25"
     inkscape:showpageshadow="2"
     inkscape:pageopacity="0.0"
     inkscape:pagecheckerboard="0"
     inkscape:deskcolor="#d1d1d1"
     showguides="true"
     inkscape:zoom="0.5260487"
     inkscape:cx="239.52155"
     inkscape:cy="723.31707"
     inkscape:window-width="2560"
     inkscape:window-height="1377"
     inkscape:window-x="-8"
     inkscape:window-y="-8"
     inkscape:window-maximized="1"
     inkscape:current-layer="g9">
    <sodipodi:guide
       position="542.86219,-3.1679688e-05"
       orientation="1,0"
       id="guide9"
       inkscape:locked="false" />
    <sodipodi:guide
       position="0,542.36219"
       orientation="0,-1"
       id="guide10"
       inkscape:locked="false" />
    <sodipodi:guide
       position="-542.86219,-3.1679688e-05"
       orientation="1,0"
       id="guide11"
       inkscape:locked="false" />
    <sodipodi:guide
       position="0,-542.86225"
       orientation="0,-1"
       id="guide12"
       inkscape:locked="false" />
  </sodipodi:namedview>
  <desc
     id="desc1">verbum-horologium_acrilic.dxf - scale = 1.000000, origin = (0.000000, 0.000000), method = manual</desc>
  <defs
     id="defs4">
    <marker
       id="DistanceX"
       orient="auto"
       refX="0.0"
       refY="0.0"
       style="overflow:visible">
      <path
         d="M 3,-3 L -3,3 M 0,-5 L  0,5"
         style="stroke:#000000; stroke-width:0.5"
         id="path1" />
    </marker>
    <pattern
       id="Hatch"
       patternUnits="userSpaceOnUse"
       width="8"
       height="8"
       x="0"
       y="0">
      <path
         d="M8 4 l-4,4"
         stroke="#000000"
         stroke-width="0.25"
         linecap="square"
         id="path2" />
      <path
         d="M6 2 l-4,4"
         stroke="#000000"
         stroke-width="0.25"
         linecap="square"
         id="path3" />
      <path
         d="M4 0 l-4,4"
         stroke="#000000"
         stroke-width="0.25"
         linecap="square"
         id="path4" />
    </pattern>
    <symbol
       id="*MODEL_SPACE" />
    <symbol
       id="*PAPER_SPACE" />
  </defs>
  <g
     inkscape:groupmode="layer"
     inkscape:label="0"
     id="g9">
    <path
       d="M -452.598425,660.472441 A 9.448819,9.448819 -0.000000 0, 0 -471.496063,660.472441 A 9.448819,9.448819 -0.000000 0, 0 -452.598425,660.472441 z"
       style="fill:none;stroke:#000000"
       id="path5" />
    <path
       d="M -452.598425,1584.566929 A 9.448819,9.448819 -0.000000 0, 0 -471.496063,1584.566929 A 9.448819,9.448819 -0.000000 0, 0 -452.598425,1584.566929 z"
       style="fill:none;stroke:#000000"
       id="path6" />
    <path
       d="M 471.496063,1584.566929 A 9.448819,9.448819 -0.000000 0, 0 452.598425,1584.566929 A 9.448819,9.448819 -0.000000 0, 0 471.496063,1584.566929 z"
       style="fill:none;stroke:#000000"
       id="path7" />
    <path
       d="M 471.496063,660.472441 A 9.448819,9.448819 -0.000000 0, 0 452.598425,660.472441 A 9.448819,9.448819 -0.000000 0, 0 471.496063,660.472441 z"
       style="fill:none;stroke:#000000"
       id="path8" />
    <path
       d="M 542.362205,1664.881890 L 542.362205,580.157480 L -542.362205,580.157480 L -542.362205,1664.881890 L 542.362205,1664.881890 z"
       style="fill:none;stroke:#000000"
       id="path9" />
  </g>
</svg>
