<?xml version="1.0" encoding="UTF-8" standalone="no"?>
<svg
   viewBox="0 0 793.7007874015749 1122.5196850393702"
   width="793.7007874015749"
   height="1122.5196850393702"
   version="1.1"
   id="svg52"
   sodipodi:docname="verbum-horologium_backing.svg"
   inkscape:version="1.3.2 (091e20e, 2023-11-25, custom)"
   xmlns:inkscape="http://www.inkscape.org/namespaces/inkscape"
   xmlns:sodipodi="http://sodipodi.sourceforge.net/DTD/sodipodi-0.dtd"
   xmlns="http://www.w3.org/2000/svg"
   xmlns:svg="http://www.w3.org/2000/svg">
  <sodipodi:namedview
     id="namedview52"
     pagecolor="#ffffff"
     bordercolor="#000000"
     borderopacity="0.25"
     inkscape:showpageshadow="2"
     inkscape:pageopacity="0.0"
     inkscape:pagecheckerboard="0"
     inkscape:deskcolor="#d1d1d1"
     showguides="true"
     inkscape:zoom="0.5260487"
     inkscape:cx="195.79936"
     inkscape:cy="863.98845"
     inkscape:window-width="2560"
     inkscape:window-height="1377"
     inkscape:window-x="-8"
     inkscape:window-y="-8"
     inkscape:window-maximized="1"
     inkscape:current-layer="g52">
    <sodipodi:guide
       position="-490.8937,-3.1679688e-05"
       orientation="1,0"
       id="guide52"
       inkscape:locked="false" />
    <sodipodi:guide
       position="490.3937,0"
       orientation="1,0"
       id="guide53"
       inkscape:locked="false" />
    <sodipodi:guide
       position="0,490.39367"
       orientation="0,-1"
       id="guide54"
       inkscape:locked="false" />
    <sodipodi:guide
       position="0,-490.89375"
       orientation="0,-1"
       id="guide55"
       inkscape:locked="false" />
  </sodipodi:namedview>
  <desc
     id="desc1">verbum-horologium_backing.dxf - scale = 1.000000, origin = (0.000000, 0.000000), method = manual</desc>
  <defs
     id="defs4">
    <marker
       id="DistanceX"
       orient="auto"
       refX="0.0"
       refY="0.0"
       style="overflow:visible">
      <path
         d="M 3,-3 L -3,3 M 0,-5 L  0,5"
         style="stroke:#000000; stroke-width:0.5"
         id="path1" />
    </marker>
    <pattern
       id="Hatch"
       patternUnits="userSpaceOnUse"
       width="8"
       height="8"
       x="0"
       y="0">
      <path
         d="M8 4 l-4,4"
         stroke="#000000"
         stroke-width="0.25"
         linecap="square"
         id="path2" />
      <path
         d="M6 2 l-4,4"
         stroke="#000000"
         stroke-width="0.25"
         linecap="square"
         id="path3" />
      <path
         d="M4 0 l-4,4"
         stroke="#000000"
         stroke-width="0.25"
         linecap="square"
         id="path4" />
    </pattern>
    <symbol
       id="*MODEL_SPACE" />
    <symbol
       id="*PAPER_SPACE" />
  </defs>
  <g
     inkscape:groupmode="layer"
     inkscape:label="0"
     id="g52">
    <path
       d="M 417.637795,856.062992 L 399.685039,856.062992 L 399.685039,810.708661 L 417.637795,810.708661 L 417.637795,856.062992 z"
       style="fill:none;stroke:#000000"
       id="path5" />
    <path
       d="M 468.094488,891.496063 A 6.047244,6.047244 -0.000000 0, 0 456.000000,891.496063 A 6.047244,6.047244 -0.000000 0, 0 468.094488,891.496063 z"
       style="fill:none;stroke:#000000"
       id="path6" />
    <path
       d="M 417.637795,791.811024 L 399.685039,791.811024 L 399.685039,746.456693 L 417.637795,746.456693 L 417.637795,791.811024 z"
       style="fill:none;stroke:#000000"
       id="path7" />
    <path
       d="M 192.755906,1593.070866 L 174.803150,1593.070866 L 174.803150,1547.716535 L 192.755906,1547.716535 L 192.755906,1593.070866 z"
       style="fill:none;stroke:#000000"
       id="path8" />
    <path
       d="M 28.346457,674.645669 A 28.346457,28.346457 -0.000000 0, 0 -28.346457,674.645669 A 28.346457,28.346457 -0.000000 0, 0 28.346457,674.645669 z"
       style="fill:none;stroke:#000000"
       id="path9" />
    <path
       d="M -224.976378,1584.566929 A 6.047244,6.047244 -0.000000 0, 0 -237.070866,1584.566929 A 6.047244,6.047244 -0.000000 0, 0 -224.976378,1584.566929 z"
       style="fill:none;stroke:#000000"
       id="path10" />
    <path
       d="M 237.070866,1584.566929 A 6.047244,6.047244 -0.000000 0, 0 224.976378,1584.566929 A 6.047244,6.047244 -0.000000 0, 0 237.070866,1584.566929 z"
       style="fill:none;stroke:#000000"
       id="path11" />
    <path
       d="M 468.094488,1353.543307 A 6.047244,6.047244 -0.000000 0, 0 456.000000,1353.543307 A 6.047244,6.047244 -0.000000 0, 0 468.094488,1353.543307 z"
       style="fill:none;stroke:#000000"
       id="path12" />
    <path
       d="M -224.976378,660.472441 A 6.047244,6.047244 -0.000000 0, 0 -237.070866,660.472441 A 6.047244,6.047244 -0.000000 0, 0 -224.976378,660.472441 z"
       style="fill:none;stroke:#000000"
       id="path13" />
    <path
       d="M 237.070866,660.472441 A 6.047244,6.047244 -0.000000 0, 0 224.976378,660.472441 A 6.047244,6.047244 -0.000000 0, 0 237.070866,660.472441 z"
       style="fill:none;stroke:#000000"
       id="path14" />
    <path
       d="M -456.000000,1353.543307 A 6.047244,6.047244 -0.000000 0, 0 -468.094488,1353.543307 A 6.047244,6.047244 -0.000000 0, 0 -456.000000,1353.543307 z"
       style="fill:none;stroke:#000000"
       id="path15" />
    <path
       d="M -456.000000,891.496063 A 6.047244,6.047244 -0.000000 0, 0 -468.094488,891.496063 A 6.047244,6.047244 -0.000000 0, 0 -456.000000,891.496063 z"
       style="fill:none;stroke:#000000"
       id="path16" />
    <path
       d="M -122.456693,657.637795 A 6.047244,6.047244 -0.000000 0, 0 -134.551181,657.637795 A 6.047244,6.047244 -0.000000 0, 0 -122.456693,657.637795 z"
       style="fill:none;stroke:#000000"
       id="path17" />
    <path
       d="M -58.204724,657.637795 A 6.047244,6.047244 -0.000000 0, 0 -70.299213,657.637795 A 6.047244,6.047244 -0.000000 0, 0 -58.204724,657.637795 z"
       style="fill:none;stroke:#000000"
       id="path18" />
    <path
       d="M 70.299213,657.637795 A 6.047244,6.047244 -0.000000 0, 0 58.204724,657.637795 A 6.047244,6.047244 -0.000000 0, 0 70.299213,657.637795 z"
       style="fill:none;stroke:#000000"
       id="path19" />
    <path
       d="M 134.551181,657.637795 A 6.047244,6.047244 -0.000000 0, 0 122.456693,657.637795 A 6.047244,6.047244 -0.000000 0, 0 134.551181,657.637795 z"
       style="fill:none;stroke:#000000"
       id="path20" />
    <path
       d="M -122.456693,691.653543 A 6.047244,6.047244 -0.000000 0, 0 -134.551181,691.653543 A 6.047244,6.047244 -0.000000 0, 0 -122.456693,691.653543 z"
       style="fill:none;stroke:#000000"
       id="path21" />
    <path
       d="M 70.299213,691.653543 A 6.047244,6.047244 -0.000000 0, 0 58.204724,691.653543 A 6.047244,6.047244 -0.000000 0, 0 70.299213,691.653543 z"
       style="fill:none;stroke:#000000"
       id="path22" />
    <path
       d="M -58.204724,691.653543 A 6.047244,6.047244 -0.000000 0, 0 -70.299213,691.653543 A 6.047244,6.047244 -0.000000 0, 0 -58.204724,691.653543 z"
       style="fill:none;stroke:#000000"
       id="path23" />
    <path
       d="M 134.551181,691.653543 A 6.047244,6.047244 -0.000000 0, 0 122.456693,691.653543 A 6.047244,6.047244 -0.000000 0, 0 134.551181,691.653543 z"
       style="fill:none;stroke:#000000"
       id="path24" />
    <path
       d="M -452.598425,660.472441 A 9.448819,9.448819 -0.000000 0, 0 -471.496063,660.472441 A 9.448819,9.448819 -0.000000 0, 0 -452.598425,660.472441 z"
       style="fill:none;stroke:#000000"
       id="path25" />
    <path
       d="M -452.598425,1584.566929 A 9.448819,9.448819 -0.000000 0, 0 -471.496063,1584.566929 A 9.448819,9.448819 -0.000000 0, 0 -452.598425,1584.566929 z"
       style="fill:none;stroke:#000000"
       id="path26" />
    <path
       d="M -399.685039,1131.968504 L -399.685039,1177.322835 L -417.637795,1177.322835 L -417.637795,1131.968504 L -399.685039,1131.968504 z"
       style="fill:none;stroke:#000000"
       id="path27" />
    <path
       d="M -399.685039,1453.228346 L -399.685039,1498.582677 L -417.637795,1498.582677 L -417.637795,1453.228346 L -399.685039,1453.228346 z"
       style="fill:none;stroke:#000000"
       id="path28" />
    <path
       d="M 471.496063,660.472441 A 9.448819,9.448819 -0.000000 0, 0 452.598425,660.472441 A 9.448819,9.448819 -0.000000 0, 0 471.496063,660.472441 z"
       style="fill:none;stroke:#000000"
       id="path29" />
    <path
       d="M -399.685039,1196.220472 L -399.685039,1241.574803 L -417.637795,1241.574803 L -417.637795,1196.220472 L -399.685039,1196.220472 z"
       style="fill:none;stroke:#000000"
       id="path30" />
    <path
       d="M -399.685039,1260.472441 L -399.685039,1305.826772 L -417.637795,1305.826772 L -417.637795,1260.472441 L -399.685039,1260.472441 z"
       style="fill:none;stroke:#000000"
       id="path31" />
    <path
       d="M -399.685039,1324.724409 L -399.685039,1370.078740 L -417.637795,1370.078740 L -417.637795,1324.724409 L -399.685039,1324.724409 z"
       style="fill:none;stroke:#000000"
       id="path32" />
    <path
       d="M -399.685039,1388.976378 L -399.685039,1434.330709 L -417.637795,1434.330709 L -417.637795,1388.976378 L -399.685039,1388.976378 z"
       style="fill:none;stroke:#000000"
       id="path33" />
    <path
       d="M -174.803150,1547.716535 L -174.803150,1593.070866 L -192.755906,1593.070866 L -192.755906,1547.716535 L -174.803150,1547.716535 z"
       style="fill:none;stroke:#000000"
       id="path34" />
    <path
       d="M -399.685039,1067.716535 L -399.685039,1113.070866 L -417.637795,1113.070866 L -417.637795,1067.716535 L -399.685039,1067.716535 z"
       style="fill:none;stroke:#000000"
       id="path35" />
    <path
       d="M -399.685039,1003.464567 L -399.685039,1048.818898 L -417.637795,1048.818898 L -417.637795,1003.464567 L -399.685039,1003.464567 z"
       style="fill:none;stroke:#000000"
       id="path36" />
    <path
       d="M -399.685039,939.212598 L -399.685039,984.566929 L -417.637795,984.566929 L -417.637795,939.212598 L -399.685039,939.212598 z"
       style="fill:none;stroke:#000000"
       id="path37" />
    <path
       d="M -399.685039,874.960630 L -399.685039,920.314961 L -417.637795,920.314961 L -417.637795,874.960630 L -399.685039,874.960630 z"
       style="fill:none;stroke:#000000"
       id="path38" />
    <path
       d="M -399.685039,810.708661 L -399.685039,856.062992 L -417.637795,856.062992 L -417.637795,810.708661 L -399.685039,810.708661 z"
       style="fill:none;stroke:#000000"
       id="path39" />
    <path
       d="M -399.685039,746.456693 L -399.685039,791.811024 L -417.637795,791.811024 L -417.637795,746.456693 L -399.685039,746.456693 z"
       style="fill:none;stroke:#000000"
       id="path40" />
    <path
       d="M 417.637795,1498.582677 L 399.685039,1498.582677 L 399.685039,1453.228346 L 417.637795,1453.228346 L 417.637795,1498.582677 z"
       style="fill:none;stroke:#000000"
       id="path41" />
    <path
       d="M 417.637795,1434.330709 L 399.685039,1434.330709 L 399.685039,1388.976378 L 417.637795,1388.976378 L 417.637795,1434.330709 z"
       style="fill:none;stroke:#000000"
       id="path42" />
    <path
       d="M 417.637795,1370.078740 L 399.685039,1370.078740 L 399.685039,1324.724409 L 417.637795,1324.724409 L 417.637795,1370.078740 z"
       style="fill:none;stroke:#000000"
       id="path43" />
    <path
       d="M 417.637795,1305.826772 L 399.685039,1305.826772 L 399.685039,1260.472441 L 417.637795,1260.472441 L 417.637795,1305.826772 z"
       style="fill:none;stroke:#000000"
       id="path44" />
    <path
       d="M 417.637795,1241.574803 L 399.685039,1241.574803 L 399.685039,1196.220472 L 417.637795,1196.220472 L 417.637795,1241.574803 z"
       style="fill:none;stroke:#000000"
       id="path45" />
    <path
       d="M 417.637795,984.566929 L 399.685039,984.566929 L 399.685039,939.212598 L 417.637795,939.212598 L 417.637795,984.566929 z"
       style="fill:none;stroke:#000000"
       id="path46" />
    <path
       d="M 417.637795,1177.322835 L 399.685039,1177.322835 L 399.685039,1131.968504 L 417.637795,1131.968504 L 417.637795,1177.322835 z"
       style="fill:none;stroke:#000000"
       id="path47" />
    <path
       d="M 417.637795,920.314961 L 399.685039,920.314961 L 399.685039,874.960630 L 417.637795,874.960630 L 417.637795,920.314961 z"
       style="fill:none;stroke:#000000"
       id="path48" />
    <path
       d="M 417.637795,1113.070866 L 399.685039,1113.070866 L 399.685039,1067.716535 L 417.637795,1067.716535 L 417.637795,1113.070866 z"
       style="fill:none;stroke:#000000"
       id="path49" />
    <path
       d="M 417.637795,1048.818898 L 399.685039,1048.818898 L 399.685039,1003.464567 L 417.637795,1003.464567 L 417.637795,1048.818898 z"
       style="fill:none;stroke:#000000"
       id="path50" />
    <path
       d="M 471.496063,1584.566929 A 9.448819,9.448819 -0.000000 0, 0 452.598425,1584.566929 A 9.448819,9.448819 -0.000000 0, 0 471.496063,1584.566929 z"
       style="fill:none;stroke:#000000"
       id="path51" />
    <path
       d="M -490.393701,1584.566929 A 28.346457,28.346457 0.0 0 0 -462.047244,1612.913386 L 462.047244,1612.913386 A 28.346457,28.346457 0.0 0 0 490.393701,1584.566929 L 490.393701,660.472441 A 28.346457,28.346457 0.0 0 0 462.047244,632.125984 L -462.047244,632.125984 A 28.346457,28.346457 0.0 0 0 -490.393701,660.472441 L -490.393701,1584.566929 z"
       style="fill:none;stroke:#000000"
       id="path52" />
  </g>
</svg>
